%TF.GenerationSoftware,KiCad,Pcbnew,8.0.0*%
%TF.CreationDate,2025-05-02T16:13:48+09:00*%
%TF.ProjectId,Capstone_Power_Distribution_Board_V1.5,43617073-746f-46e6-955f-506f7765725f,rev?*%
%TF.SameCoordinates,Original*%
%TF.FileFunction,Copper,L3,Inr*%
%TF.FilePolarity,Positive*%
%FSLAX46Y46*%
G04 Gerber Fmt 4.6, Leading zero omitted, Abs format (unit mm)*
G04 Created by KiCad (PCBNEW 8.0.0) date 2025-05-02 16:13:48*
%MOMM*%
%LPD*%
G01*
G04 APERTURE LIST*
G04 Aperture macros list*
%AMRoundRect*
0 Rectangle with rounded corners*
0 $1 Rounding radius*
0 $2 $3 $4 $5 $6 $7 $8 $9 X,Y pos of 4 corners*
0 Add a 4 corners polygon primitive as box body*
4,1,4,$2,$3,$4,$5,$6,$7,$8,$9,$2,$3,0*
0 Add four circle primitives for the rounded corners*
1,1,$1+$1,$2,$3*
1,1,$1+$1,$4,$5*
1,1,$1+$1,$6,$7*
1,1,$1+$1,$8,$9*
0 Add four rect primitives between the rounded corners*
20,1,$1+$1,$2,$3,$4,$5,0*
20,1,$1+$1,$4,$5,$6,$7,0*
20,1,$1+$1,$6,$7,$8,$9,0*
20,1,$1+$1,$8,$9,$2,$3,0*%
G04 Aperture macros list end*
%TA.AperFunction,ComponentPad*%
%ADD10RoundRect,0.250000X0.350000X0.625000X-0.350000X0.625000X-0.350000X-0.625000X0.350000X-0.625000X0*%
%TD*%
%TA.AperFunction,ComponentPad*%
%ADD11O,1.200000X1.750000*%
%TD*%
%TA.AperFunction,ComponentPad*%
%ADD12C,2.775000*%
%TD*%
%TA.AperFunction,ComponentPad*%
%ADD13R,3.800000X3.800000*%
%TD*%
%TA.AperFunction,ComponentPad*%
%ADD14C,4.000000*%
%TD*%
%TA.AperFunction,ComponentPad*%
%ADD15C,3.000000*%
%TD*%
%TA.AperFunction,ComponentPad*%
%ADD16R,1.650000X1.650000*%
%TD*%
%TA.AperFunction,ComponentPad*%
%ADD17C,1.650000*%
%TD*%
%TA.AperFunction,ComponentPad*%
%ADD18C,6.540000*%
%TD*%
%TA.AperFunction,ComponentPad*%
%ADD19C,5.640000*%
%TD*%
%TA.AperFunction,ComponentPad*%
%ADD20C,0.800000*%
%TD*%
%TA.AperFunction,ComponentPad*%
%ADD21C,6.400000*%
%TD*%
%TA.AperFunction,ComponentPad*%
%ADD22C,2.000000*%
%TD*%
%TA.AperFunction,ComponentPad*%
%ADD23C,5.000000*%
%TD*%
%TA.AperFunction,ComponentPad*%
%ADD24R,9.150000X9.150000*%
%TD*%
%TA.AperFunction,ComponentPad*%
%ADD25C,9.150000*%
%TD*%
%TA.AperFunction,ComponentPad*%
%ADD26O,8.300000X2.300000*%
%TD*%
%TA.AperFunction,ComponentPad*%
%ADD27O,2.300000X8.300000*%
%TD*%
%TA.AperFunction,ComponentPad*%
%ADD28RoundRect,0.250000X-0.600000X-0.675000X0.600000X-0.675000X0.600000X0.675000X-0.600000X0.675000X0*%
%TD*%
%TA.AperFunction,ComponentPad*%
%ADD29O,1.700000X1.850000*%
%TD*%
%TA.AperFunction,ComponentPad*%
%ADD30R,1.700000X1.700000*%
%TD*%
%TA.AperFunction,ComponentPad*%
%ADD31O,1.700000X1.700000*%
%TD*%
%TA.AperFunction,ComponentPad*%
%ADD32R,1.371600X1.371600*%
%TD*%
%TA.AperFunction,ComponentPad*%
%ADD33C,1.371600*%
%TD*%
%TA.AperFunction,ComponentPad*%
%ADD34R,2.000000X2.000000*%
%TD*%
%TA.AperFunction,ComponentPad*%
%ADD35R,2.000000X1.905000*%
%TD*%
%TA.AperFunction,ComponentPad*%
%ADD36O,2.000000X1.905000*%
%TD*%
%TA.AperFunction,ViaPad*%
%ADD37C,0.600000*%
%TD*%
%TA.AperFunction,Conductor*%
%ADD38C,0.200000*%
%TD*%
%TA.AperFunction,Conductor*%
%ADD39C,5.000000*%
%TD*%
%TA.AperFunction,Conductor*%
%ADD40C,2.000000*%
%TD*%
%TA.AperFunction,Conductor*%
%ADD41C,3.000000*%
%TD*%
%TA.AperFunction,Conductor*%
%ADD42C,6.000000*%
%TD*%
%TA.AperFunction,Conductor*%
%ADD43C,7.000000*%
%TD*%
G04 APERTURE END LIST*
D10*
%TO.N,+12V_PC*%
%TO.C,J22*%
X138980000Y-38350000D03*
D11*
X136980000Y-38350000D03*
%TO.N,GND*%
X134980000Y-38350000D03*
X132980000Y-38350000D03*
%TD*%
D12*
%TO.N,Net-(J7-Pin_1)*%
%TO.C,J7*%
X52460000Y-146000000D03*
%TO.N,+24V_BAT*%
X60710000Y-146000000D03*
%TD*%
D13*
%TO.N,GND*%
%TO.C,J20*%
X69250000Y-44930000D03*
D14*
%TO.N,/12V_SW_IN*%
X69250000Y-49930000D03*
%TD*%
D15*
%TO.N,+24V*%
%TO.C,TP10*%
X135320000Y-49670000D03*
%TD*%
D16*
%TO.N,Net-(J3-Pin_1)*%
%TO.C,K1*%
X157660000Y-130590000D03*
D17*
%TO.N,GND*%
X157660000Y-120390000D03*
D18*
%TO.N,+24V*%
X142260000Y-116590000D03*
D19*
%TO.N,+24V_relay*%
X145690000Y-135340000D03*
%TD*%
D20*
%TO.N,unconnected-(H3-Pad1)_1*%
%TO.C,H3*%
X87575216Y-150632652D03*
%TO.N,unconnected-(H3-Pad1)_6*%
X88278160Y-148935596D03*
%TO.N,unconnected-(H3-Pad1)_3*%
X88278160Y-152329708D03*
%TO.N,unconnected-(H3-Pad1)_5*%
X89975216Y-148232652D03*
D21*
%TO.N,unconnected-(H3-Pad1)_7*%
X89975216Y-150632652D03*
D20*
%TO.N,unconnected-(H3-Pad1)*%
X89975216Y-153032652D03*
%TO.N,unconnected-(H3-Pad1)_4*%
X91672272Y-148935596D03*
%TO.N,unconnected-(H3-Pad1)_2*%
X91672272Y-152329708D03*
%TO.N,unconnected-(H3-Pad1)_0*%
X92375216Y-150632652D03*
%TD*%
%TO.N,unconnected-(H2-Pad1)_5*%
%TO.C,H2*%
X149575216Y-38632652D03*
%TO.N,unconnected-(H2-Pad1)_3*%
X150278160Y-36935596D03*
%TO.N,unconnected-(H2-Pad1)_7*%
X150278160Y-40329708D03*
%TO.N,unconnected-(H2-Pad1)_1*%
X151975216Y-36232652D03*
D21*
%TO.N,unconnected-(H2-Pad1)_0*%
X151975216Y-38632652D03*
D20*
%TO.N,unconnected-(H2-Pad1)_4*%
X151975216Y-41032652D03*
%TO.N,unconnected-(H2-Pad1)_2*%
X153672272Y-36935596D03*
%TO.N,unconnected-(H2-Pad1)*%
X153672272Y-40329708D03*
%TO.N,unconnected-(H2-Pad1)_6*%
X154375216Y-38632652D03*
%TD*%
D22*
%TO.N,/PG_5V*%
%TO.C,TP4*%
X131120000Y-49670000D03*
%TD*%
D23*
%TO.N,+24V*%
%TO.C,J24*%
X74780000Y-62100000D03*
X74780000Y-71600000D03*
%TO.N,+12V_DCDC*%
X74780000Y-81100000D03*
X74780000Y-90600000D03*
%TO.N,+5V*%
X74780000Y-100100000D03*
X74780000Y-109600000D03*
%TO.N,+3.3V*%
X74780000Y-119100000D03*
X74780000Y-128600000D03*
%TD*%
D12*
%TO.N,Net-(J3-Pin_1)*%
%TO.C,J3*%
X142830000Y-147310000D03*
%TO.N,Net-(D2-A)*%
X151080000Y-147310000D03*
%TD*%
D15*
%TO.N,+24V_BAT*%
%TO.C,TP9*%
X158520000Y-141470000D03*
%TD*%
D22*
%TO.N,/EN_5V*%
%TO.C,TP2*%
X131120000Y-53470000D03*
%TD*%
%TO.N,Net-(U3B--)*%
%TO.C,TP3*%
X79850000Y-36780000D03*
%TD*%
%TO.N,Net-(U3B-+)*%
%TO.C,TP1*%
X76230000Y-36780000D03*
%TD*%
D12*
%TO.N,Net-(J19-Pin_1)*%
%TO.C,J19*%
X124030000Y-147330000D03*
%TO.N,Net-(D8-A)*%
X132280000Y-147330000D03*
%TD*%
D24*
%TO.N,GND*%
%TO.C,J8*%
X152350000Y-58540000D03*
D25*
%TO.N,+24V*%
X141350000Y-58540000D03*
%TD*%
D20*
%TO.N,unconnected-(H1-Pad1)_3*%
%TO.C,H1*%
X46575264Y-38632668D03*
%TO.N,unconnected-(H1-Pad1)_7*%
X47278208Y-36935612D03*
%TO.N,unconnected-(H1-Pad1)*%
X47278208Y-40329724D03*
%TO.N,unconnected-(H1-Pad1)_4*%
X48975264Y-36232668D03*
D21*
%TO.N,unconnected-(H1-Pad1)_0*%
X48975264Y-38632668D03*
D20*
%TO.N,unconnected-(H1-Pad1)_1*%
X48975264Y-41032668D03*
%TO.N,unconnected-(H1-Pad1)_2*%
X50672320Y-36935612D03*
%TO.N,unconnected-(H1-Pad1)_6*%
X50672320Y-40329724D03*
%TO.N,unconnected-(H1-Pad1)_5*%
X51375264Y-38632668D03*
%TD*%
D13*
%TO.N,+12V_DCDC*%
%TO.C,J15*%
X79020000Y-44930000D03*
D14*
%TO.N,/12V_SW_IN*%
X79020000Y-49930000D03*
%TD*%
D26*
%TO.N,Net-(J7-Pin_1)*%
%TO.C,U1*%
X117400000Y-108970000D03*
%TO.N,GND*%
X117400000Y-125770000D03*
%TO.N,+24V_BAT*%
X107500000Y-117370000D03*
D27*
%TO.N,unconnected-(U1-NC-Pad4)*%
X117400000Y-117370000D03*
%TO.N,+24V_relay*%
X125400000Y-117370000D03*
%TD*%
D15*
%TO.N,/12V_SW_IN*%
%TO.C,TP12*%
X74930000Y-41140000D03*
%TD*%
D22*
%TO.N,Net-(TP5-Pad1)*%
%TO.C,TP5*%
X83450000Y-36780000D03*
%TD*%
D28*
%TO.N,GND*%
%TO.C,J4*%
X71320000Y-141510000D03*
D29*
%TO.N,/GPIO_3*%
X73820000Y-141510000D03*
%TO.N,/GPIO_2*%
X76320000Y-141510000D03*
%TO.N,/GPIO_1*%
X78820000Y-141510000D03*
%TD*%
D30*
%TO.N,+5V*%
%TO.C,J2*%
X124425000Y-82120000D03*
D31*
X126965000Y-82120000D03*
%TO.N,GND*%
X124425000Y-84660000D03*
X126965000Y-84660000D03*
X124425000Y-87200000D03*
X126965000Y-87200000D03*
%TO.N,+24V*%
X124425000Y-89740000D03*
X126965000Y-89740000D03*
%TO.N,/VRP_5V*%
X124425000Y-92280000D03*
X126965000Y-92280000D03*
%TO.N,/EN_5V*%
X124425000Y-94820000D03*
%TO.N,/PG_5V*%
X126965000Y-94820000D03*
%TD*%
D28*
%TO.N,+24V_relay*%
%TO.C,J18*%
X97250000Y-137260000D03*
D29*
%TO.N,GND*%
X99750000Y-137260000D03*
%TD*%
D23*
%TO.N,GND*%
%TO.C,J25*%
X56680000Y-62100000D03*
X56680000Y-71600000D03*
X56680000Y-81100000D03*
X56680000Y-90600000D03*
X56680000Y-100100000D03*
X56680000Y-109600000D03*
X56680000Y-119100000D03*
X56680000Y-128600000D03*
%TD*%
D20*
%TO.N,unconnected-(H4-Pad1)_2*%
%TO.C,H4*%
X158574716Y-150632952D03*
%TO.N,unconnected-(H4-Pad1)_0*%
X159277660Y-148935896D03*
%TO.N,unconnected-(H4-Pad1)_3*%
X159277660Y-152330008D03*
%TO.N,unconnected-(H4-Pad1)*%
X160974716Y-148232952D03*
D21*
%TO.N,unconnected-(H4-Pad1)_7*%
X160974716Y-150632952D03*
D20*
%TO.N,unconnected-(H4-Pad1)_1*%
X160974716Y-153032952D03*
%TO.N,unconnected-(H4-Pad1)_4*%
X162671772Y-148935896D03*
%TO.N,unconnected-(H4-Pad1)_5*%
X162671772Y-152330008D03*
%TO.N,unconnected-(H4-Pad1)_6*%
X163374716Y-150632952D03*
%TD*%
D32*
%TO.N,+5V*%
%TO.C,BZ1*%
X54616750Y-47280000D03*
D33*
%TO.N,Net-(BZ1--)*%
X62216750Y-47280000D03*
%TD*%
D22*
%TO.N,/Expansion Sheet/PG*%
%TO.C,J23*%
X101800000Y-68417500D03*
%TO.N,/Expansion Sheet/MOD*%
X104340000Y-68417500D03*
D34*
%TO.N,GND*%
X106880000Y-68417500D03*
X109420000Y-68417500D03*
D22*
%TO.N,/Expansion Sheet/EN*%
X111960000Y-68417500D03*
%TD*%
D28*
%TO.N,/Blue*%
%TO.C,J5*%
X71320000Y-149730000D03*
D29*
%TO.N,/Green*%
X73820000Y-149730000D03*
%TO.N,/Red*%
X76320000Y-149730000D03*
%TO.N,+12V_PC*%
X78820000Y-149730000D03*
%TD*%
D24*
%TO.N,GND*%
%TO.C,J6*%
X152350000Y-73200000D03*
D25*
%TO.N,+24V*%
X141350000Y-73200000D03*
%TD*%
D15*
%TO.N,GND*%
%TO.C,TP21*%
X139460000Y-49670000D03*
%TD*%
D24*
%TO.N,GND*%
%TO.C,J13*%
X100550000Y-146790000D03*
D25*
%TO.N,+24V_BAT*%
X111550000Y-146790000D03*
%TD*%
D16*
%TO.N,Net-(J19-Pin_1)*%
%TO.C,K3*%
X137830000Y-89580000D03*
D17*
%TO.N,GND*%
X137830000Y-99780000D03*
D18*
%TO.N,+12V_PC*%
X153230000Y-103580000D03*
D19*
%TO.N,+12V_DCDC*%
X149800000Y-84830000D03*
%TD*%
D35*
%TO.N,/GPIO_3*%
%TO.C,Q3*%
X92310000Y-103210000D03*
D36*
%TO.N,/Blue*%
X92310000Y-100670000D03*
%TO.N,GND*%
X92310000Y-98130000D03*
%TD*%
D35*
%TO.N,/GPIO_1*%
%TO.C,Q1*%
X92320000Y-81030000D03*
D36*
%TO.N,/Red*%
X92320000Y-78490000D03*
%TO.N,GND*%
X92320000Y-75950000D03*
%TD*%
D35*
%TO.N,/GPIO_2*%
%TO.C,Q2*%
X92310000Y-92060000D03*
D36*
%TO.N,/Green*%
X92310000Y-89520000D03*
%TO.N,GND*%
X92310000Y-86980000D03*
%TD*%
D37*
%TO.N,GND*%
X85170000Y-123990000D03*
X148700000Y-120120000D03*
X157170000Y-125890000D03*
X135750000Y-138720000D03*
X152280000Y-117430000D03*
X86020000Y-134020000D03*
X152280000Y-120130000D03*
X115810000Y-69480000D03*
X94390000Y-83510000D03*
X88850000Y-120840000D03*
X148700000Y-121920000D03*
X160360000Y-118670000D03*
X159660000Y-136140000D03*
X133460000Y-138740000D03*
X157640000Y-117250000D03*
X92210000Y-83510000D03*
X102330000Y-96520000D03*
X152280000Y-118330000D03*
X160340000Y-117250000D03*
X155750000Y-125910000D03*
X156740000Y-117250000D03*
X95740000Y-86210000D03*
X97980000Y-67650000D03*
X88640000Y-122570000D03*
X154100000Y-135350000D03*
X159440000Y-117250000D03*
X96990000Y-86880000D03*
X153700000Y-117410000D03*
X131130000Y-138720000D03*
X129190000Y-138730000D03*
X100660000Y-101570000D03*
X98760000Y-103460000D03*
X84537107Y-130472893D03*
X155750000Y-122310000D03*
X103090000Y-125800000D03*
X157170000Y-124090000D03*
X84620000Y-129260000D03*
X118310000Y-150760000D03*
X96880000Y-92830000D03*
X100660000Y-94360000D03*
X153700000Y-120110000D03*
X100650000Y-95970000D03*
X152280000Y-121030000D03*
X158540000Y-117250000D03*
X115860000Y-67560000D03*
X152460000Y-144160000D03*
X103090000Y-121840000D03*
X155750000Y-124110000D03*
X103090000Y-123050000D03*
X148700000Y-122820000D03*
X102330000Y-97980000D03*
X158450000Y-138190000D03*
X152280000Y-119230000D03*
X103090000Y-124430000D03*
X102330000Y-99880000D03*
X153720000Y-147750000D03*
X153700000Y-121010000D03*
X157660000Y-118670000D03*
X100670000Y-105300000D03*
X103090000Y-119680000D03*
X154450000Y-142180000D03*
X153700000Y-119210000D03*
X159520000Y-129140000D03*
X100670000Y-89660000D03*
X148700000Y-125370000D03*
X148700000Y-124470000D03*
X93290000Y-82980000D03*
X97940000Y-107240000D03*
X148700000Y-127170000D03*
X158560000Y-118670000D03*
X148700000Y-126270000D03*
X94320000Y-86210000D03*
X102330000Y-86250000D03*
X100640000Y-103450000D03*
X156760000Y-118670000D03*
X155610000Y-129220000D03*
X102330000Y-103460000D03*
X159610000Y-133830000D03*
X155750000Y-123210000D03*
X95650000Y-82980000D03*
X102330000Y-101560000D03*
X157170000Y-123190000D03*
X157600000Y-128320000D03*
X155510000Y-146080000D03*
X103090000Y-120770000D03*
X102330000Y-93010000D03*
X148700000Y-121020000D03*
X155750000Y-125010000D03*
X153700000Y-118310000D03*
X157170000Y-122290000D03*
X155630000Y-133800000D03*
X97950000Y-69220000D03*
X98770000Y-105270000D03*
X96950000Y-99590000D03*
X102330000Y-91110000D03*
X152510000Y-136880000D03*
X159640000Y-131340000D03*
X88660000Y-125180000D03*
X102330000Y-89890000D03*
X102330000Y-94620000D03*
X96870000Y-83510000D03*
X102330000Y-87990000D03*
X157170000Y-124990000D03*
X159460000Y-118670000D03*
X100680000Y-88370000D03*
X155660000Y-131350000D03*
%TO.N,+24V*%
X134200000Y-58780000D03*
X129320000Y-108570000D03*
X121450000Y-101110000D03*
X108280000Y-85500000D03*
X142710000Y-65120000D03*
X135560000Y-71010000D03*
X130750000Y-61270000D03*
X109700000Y-83680000D03*
X135560000Y-73710000D03*
X116980000Y-96630000D03*
X130750000Y-64640000D03*
X135620000Y-59660000D03*
X115770000Y-89750000D03*
X115770000Y-88850000D03*
X85520000Y-66870000D03*
X134140000Y-73730000D03*
X137290000Y-105690000D03*
X136210000Y-66560000D03*
X120030000Y-99330000D03*
X137990000Y-65140000D03*
X135870000Y-111110000D03*
X135870000Y-112010000D03*
X116080000Y-83640000D03*
X138910000Y-66560000D03*
X135870000Y-110210000D03*
X118400000Y-96610000D03*
X135560000Y-70110000D03*
X143630000Y-66540000D03*
X116080000Y-81840000D03*
X145430000Y-66540000D03*
X85520000Y-69570000D03*
X118400000Y-98410000D03*
X139810000Y-66560000D03*
X114660000Y-84560000D03*
X85520000Y-67770000D03*
X138010000Y-66560000D03*
X135870000Y-106610000D03*
X135870000Y-109310000D03*
X114660000Y-83660000D03*
X109700000Y-84580000D03*
X121450000Y-98410000D03*
X86940000Y-68650000D03*
X137290000Y-109290000D03*
X109700000Y-82780000D03*
X134200000Y-60580000D03*
X121450000Y-100210000D03*
X142730000Y-66540000D03*
X86940000Y-69550000D03*
X85520000Y-70470000D03*
X144530000Y-66540000D03*
X86940000Y-70450000D03*
X116080000Y-85440000D03*
X130740000Y-106750000D03*
X108280000Y-83700000D03*
X86940000Y-66850000D03*
X135620000Y-57860000D03*
X114660000Y-82760000D03*
X118400000Y-99310000D03*
X130750000Y-63430000D03*
X135870000Y-107510000D03*
X116980000Y-98430000D03*
X135560000Y-71910000D03*
X115770000Y-87950000D03*
X137290000Y-107490000D03*
X130740000Y-107650000D03*
X116080000Y-84540000D03*
X134200000Y-59680000D03*
X120030000Y-101130000D03*
X135870000Y-105710000D03*
X86940000Y-67750000D03*
X118400000Y-97510000D03*
X130750000Y-62360000D03*
X116980000Y-97530000D03*
X108280000Y-84600000D03*
X130750000Y-67390000D03*
X136190000Y-65140000D03*
X120030000Y-102030000D03*
X114660000Y-81860000D03*
X145410000Y-65120000D03*
X129320000Y-107670000D03*
X143610000Y-65120000D03*
X134200000Y-56980000D03*
X137090000Y-65140000D03*
X146330000Y-66540000D03*
X134140000Y-72830000D03*
X120030000Y-100230000D03*
X109700000Y-81880000D03*
X135870000Y-108410000D03*
X130750000Y-66020000D03*
X134200000Y-57880000D03*
X117190000Y-89730000D03*
X134140000Y-71030000D03*
X129320000Y-106770000D03*
X121450000Y-99310000D03*
X144510000Y-65120000D03*
X130740000Y-108550000D03*
X137290000Y-111090000D03*
X134140000Y-70130000D03*
X135620000Y-58760000D03*
X135560000Y-72810000D03*
X85520000Y-68670000D03*
X129320000Y-104970000D03*
X116080000Y-82740000D03*
X139790000Y-65140000D03*
X120030000Y-98430000D03*
X146310000Y-65120000D03*
X130740000Y-105850000D03*
X116980000Y-95730000D03*
X129320000Y-105870000D03*
X108280000Y-81900000D03*
X117190000Y-87930000D03*
X116980000Y-99330000D03*
X137290000Y-108390000D03*
X117190000Y-88830000D03*
X137110000Y-66560000D03*
X135620000Y-60560000D03*
X121450000Y-102010000D03*
X134140000Y-71930000D03*
X114660000Y-85460000D03*
X109700000Y-85480000D03*
X137290000Y-106590000D03*
X138890000Y-65140000D03*
X135620000Y-56960000D03*
X108280000Y-82800000D03*
X130740000Y-104950000D03*
X118400000Y-95710000D03*
X137290000Y-110190000D03*
%TO.N,Net-(U2-SW)*%
X90237863Y-120744963D03*
X94160000Y-119760000D03*
%TO.N,+24V_BAT*%
X118200000Y-152360000D03*
X154540000Y-149360000D03*
X111550000Y-133210000D03*
X157280000Y-146620000D03*
X151540000Y-152360000D03*
X122470000Y-152360000D03*
X127060000Y-152360000D03*
X131760000Y-152360000D03*
X141900000Y-152350000D03*
X146870000Y-152350000D03*
X158520000Y-144740000D03*
X136470000Y-152350000D03*
%TO.N,Net-(U2-COMP)*%
X90410000Y-128150000D03*
X87038952Y-124138110D03*
%TO.N,+5V*%
X80030000Y-133930000D03*
X83100000Y-146800000D03*
X83110000Y-134510000D03*
%TO.N,/GPIO_1*%
X90700000Y-84410000D03*
%TO.N,/GPIO_2*%
X90860000Y-95190000D03*
%TO.N,/GPIO_3*%
X95970000Y-98610000D03*
X94470000Y-107460000D03*
%TO.N,Net-(J3-Pin_1)*%
X157660000Y-134170000D03*
X150920000Y-142670000D03*
X155800000Y-137790000D03*
X148120000Y-145470000D03*
X153130000Y-140490000D03*
%TO.N,Net-(U3A-+)*%
X52650000Y-55790000D03*
X52730000Y-53200000D03*
%TO.N,+12V_DCDC*%
X120860000Y-67560000D03*
X120840000Y-69480000D03*
%TO.N,Net-(J19-Pin_1)*%
X132640000Y-143860000D03*
X140190000Y-91940000D03*
X144300000Y-100060000D03*
X129690000Y-143860000D03*
X135730000Y-143860000D03*
X148620000Y-106410000D03*
X150660000Y-125580000D03*
X150660000Y-130420000D03*
X139490000Y-143880000D03*
X145330000Y-103120000D03*
X145700000Y-143710000D03*
X150550000Y-108380000D03*
X150660000Y-114160000D03*
X150660000Y-110690000D03*
X150660000Y-120050000D03*
X142620000Y-94370000D03*
X144300000Y-97030000D03*
X143070000Y-143860000D03*
X150680000Y-134960000D03*
%TO.N,+12V_PC*%
X162140000Y-83870000D03*
X162140000Y-89160000D03*
X162100000Y-71460000D03*
X160340000Y-54110000D03*
X156680000Y-50500000D03*
X152529837Y-47550713D03*
X157090000Y-99710000D03*
X141840000Y-45400000D03*
X159820000Y-96940000D03*
X162060000Y-65170000D03*
X146860000Y-47560000D03*
X162130000Y-78190000D03*
X161970000Y-94480000D03*
X162150000Y-59080000D03*
X138660000Y-42230000D03*
%TO.N,+24V_relay*%
X129770000Y-124170000D03*
X138320000Y-131150000D03*
X128350000Y-126890000D03*
X138340000Y-132570000D03*
X129770000Y-123270000D03*
X136540000Y-132570000D03*
X135640000Y-132570000D03*
X137440000Y-132570000D03*
X128350000Y-123290000D03*
X139240000Y-132570000D03*
X139210000Y-129870000D03*
X135610000Y-129870000D03*
X140120000Y-131150000D03*
X129770000Y-125970000D03*
X128350000Y-125990000D03*
X92900000Y-67640000D03*
X133820000Y-131150000D03*
X128350000Y-124190000D03*
X129770000Y-120570000D03*
X129770000Y-119670000D03*
X141040000Y-132570000D03*
X92890000Y-69220000D03*
X141010000Y-129870000D03*
X105080000Y-105450000D03*
X104950000Y-96560000D03*
X136510000Y-129870000D03*
X129770000Y-121470000D03*
X139220000Y-131150000D03*
X104950000Y-92580000D03*
X128350000Y-122390000D03*
X128350000Y-121490000D03*
X140110000Y-129870000D03*
X128350000Y-120590000D03*
X134740000Y-132570000D03*
X134710000Y-129870000D03*
X141020000Y-131150000D03*
X141920000Y-131150000D03*
X128350000Y-125090000D03*
X135620000Y-131150000D03*
X140140000Y-132570000D03*
X128350000Y-119690000D03*
X137420000Y-131150000D03*
X133840000Y-132570000D03*
X134720000Y-131150000D03*
X136520000Y-131150000D03*
X137410000Y-129870000D03*
X129770000Y-125070000D03*
X128350000Y-118790000D03*
X138310000Y-129870000D03*
X129770000Y-118770000D03*
X141910000Y-129870000D03*
X129770000Y-122370000D03*
%TO.N,Net-(U2-EN)*%
X91370000Y-128190000D03*
X88900000Y-123930000D03*
%TO.N,/compare*%
X52740000Y-48640000D03*
X51802712Y-55789349D03*
%TO.N,Net-(U3B-+)*%
X57439143Y-52040857D03*
%TO.N,Net-(U3B--)*%
X57450000Y-53060000D03*
%TO.N,Net-(TP5-Pad1)*%
X57410000Y-54020000D03*
%TD*%
D38*
%TO.N,*%
X147770000Y-64070000D02*
X147820000Y-64020000D01*
X147770000Y-67470000D02*
X147770000Y-64070000D01*
X146820000Y-140110000D02*
X147100000Y-140110000D01*
D39*
%TO.N,+24V*%
X79170000Y-71600000D02*
X79180000Y-71610000D01*
D40*
X126965000Y-89740000D02*
X128167081Y-89740000D01*
X130653783Y-92226702D02*
X130653783Y-104983783D01*
X134420000Y-108750000D02*
X134420000Y-108770000D01*
D41*
X135320000Y-49670000D02*
X135320000Y-52510000D01*
D39*
X134440000Y-108770000D02*
X134420000Y-108770000D01*
D41*
X135320000Y-52510000D02*
X141350000Y-58540000D01*
D40*
X126965000Y-89740000D02*
X124425000Y-89740000D01*
D39*
X78160000Y-62100000D02*
X78190000Y-62130000D01*
D40*
X128167081Y-89740000D02*
X130653783Y-92226702D01*
D39*
X74780000Y-62100000D02*
X78160000Y-62100000D01*
D40*
X130653783Y-104983783D02*
X134420000Y-108750000D01*
D39*
X142260000Y-116590000D02*
X134440000Y-108770000D01*
X74780000Y-71600000D02*
X79170000Y-71600000D01*
D42*
X142200000Y-74050000D02*
X141350000Y-73200000D01*
D43*
%TO.N,+24V_BAT*%
X107500000Y-117370000D02*
X107500000Y-122100000D01*
D40*
X127060000Y-152360000D02*
X122470000Y-152360000D01*
X118200000Y-152360000D02*
X122470000Y-152360000D01*
X151540000Y-152360000D02*
X146880000Y-152360000D01*
X136460000Y-152360000D02*
X131760000Y-152360000D01*
X154540000Y-149360000D02*
X151540000Y-152360000D01*
X136470000Y-152350000D02*
X136460000Y-152360000D01*
X141900000Y-152350000D02*
X141890000Y-152360000D01*
X118200000Y-152360000D02*
X117120000Y-152360000D01*
X157280000Y-146620000D02*
X154540000Y-149360000D01*
X111550000Y-144870000D02*
X111550000Y-146790000D01*
X158520000Y-144740000D02*
X158520000Y-145380000D01*
X141890000Y-152360000D02*
X136480000Y-152360000D01*
X158520000Y-144740000D02*
X158520000Y-141470000D01*
D43*
X111550000Y-133210000D02*
X111550000Y-146790000D01*
D40*
X146860000Y-152360000D02*
X141910000Y-152360000D01*
X131760000Y-152360000D02*
X127060000Y-152360000D01*
X141910000Y-152360000D02*
X141900000Y-152350000D01*
X117120000Y-152360000D02*
X111550000Y-146790000D01*
X158520000Y-145380000D02*
X157280000Y-146620000D01*
D43*
X107500000Y-122100000D02*
X107500000Y-129160000D01*
D40*
X136480000Y-152360000D02*
X136470000Y-152350000D01*
X146870000Y-152350000D02*
X146860000Y-152360000D01*
X146880000Y-152360000D02*
X146870000Y-152350000D01*
D43*
X107500000Y-129160000D02*
X111550000Y-133210000D01*
D40*
%TO.N,Net-(J3-Pin_1)*%
X148120000Y-145470000D02*
X146280000Y-147310000D01*
X153130000Y-140490000D02*
X153100000Y-140490000D01*
X155800000Y-137790000D02*
X153130000Y-140460000D01*
X157660000Y-134170000D02*
X157660000Y-135930000D01*
X157660000Y-135930000D02*
X155800000Y-137790000D01*
X157660000Y-134170000D02*
X157660000Y-130590000D01*
X153130000Y-140460000D02*
X153130000Y-140490000D01*
X146280000Y-147310000D02*
X142830000Y-147310000D01*
X150920000Y-142670000D02*
X148120000Y-145470000D01*
X153100000Y-140490000D02*
X150920000Y-142670000D01*
%TO.N,Net-(J19-Pin_1)*%
X150680000Y-134960000D02*
X150660000Y-134980000D01*
X150590000Y-108380000D02*
X150660000Y-108450000D01*
X144300000Y-100060000D02*
X144300000Y-102090000D01*
X150660000Y-134980000D02*
X150660000Y-138840000D01*
X139510000Y-143860000D02*
X139490000Y-143880000D01*
X150660000Y-138840000D02*
X145790000Y-143710000D01*
X139470000Y-143860000D02*
X139490000Y-143880000D01*
X127500000Y-143860000D02*
X124030000Y-147330000D01*
X144300000Y-96050000D02*
X144300000Y-97030000D01*
X145330000Y-103120000D02*
X148620000Y-106410000D01*
X145790000Y-143710000D02*
X145700000Y-143710000D01*
X132640000Y-143860000D02*
X135730000Y-143860000D01*
X129690000Y-143860000D02*
X127500000Y-143860000D01*
X150660000Y-114160000D02*
X150660000Y-120050000D01*
X150660000Y-130420000D02*
X150660000Y-134940000D01*
X140190000Y-91940000D02*
X137830000Y-89580000D01*
X150660000Y-108450000D02*
X150660000Y-110690000D01*
X144300000Y-97030000D02*
X144300000Y-100060000D01*
X145640000Y-143860000D02*
X145700000Y-143800000D01*
X145700000Y-143800000D02*
X145700000Y-143710000D01*
X143070000Y-143860000D02*
X139510000Y-143860000D01*
X150550000Y-108340000D02*
X150550000Y-108380000D01*
X129690000Y-143860000D02*
X132640000Y-143860000D01*
X150660000Y-125580000D02*
X150660000Y-130420000D01*
X150660000Y-110690000D02*
X150660000Y-114160000D01*
X144300000Y-102090000D02*
X145330000Y-103120000D01*
X142620000Y-94370000D02*
X144300000Y-96050000D01*
X150660000Y-120050000D02*
X150660000Y-125580000D01*
X148620000Y-106410000D02*
X150550000Y-108340000D01*
X143070000Y-143860000D02*
X145640000Y-143860000D01*
X135730000Y-143860000D02*
X139470000Y-143860000D01*
X150550000Y-108380000D02*
X150590000Y-108380000D01*
X150660000Y-134940000D02*
X150680000Y-134960000D01*
X140190000Y-91940000D02*
X142620000Y-94370000D01*
%TO.N,+24V_relay*%
X97250000Y-134820000D02*
X101260000Y-130810000D01*
X97250000Y-137260000D02*
X97250000Y-134820000D01*
X104260000Y-111650000D02*
X119680000Y-111650000D01*
X119680000Y-111650000D02*
X125400000Y-117370000D01*
X101260000Y-130810000D02*
X101260000Y-114650000D01*
X101260000Y-114650000D02*
X104260000Y-111650000D01*
%TD*%
%TA.AperFunction,Conductor*%
%TO.N,+24V*%
G36*
X138814354Y-51572541D02*
G01*
X138857386Y-51580357D01*
X138894954Y-51594369D01*
X138894960Y-51594370D01*
X138894962Y-51594371D01*
X139174566Y-51655195D01*
X139174568Y-51655195D01*
X139174572Y-51655196D01*
X139428220Y-51673337D01*
X139459999Y-51675610D01*
X139460000Y-51675610D01*
X139460001Y-51675610D01*
X139488595Y-51673564D01*
X139745428Y-51655196D01*
X139791867Y-51645094D01*
X139975739Y-51605095D01*
X140025046Y-51594369D01*
X140054687Y-51583313D01*
X140098292Y-51575496D01*
X146349058Y-51589882D01*
X146416050Y-51609721D01*
X146436144Y-51625894D01*
X147550782Y-52732845D01*
X147813049Y-52993304D01*
X147846746Y-53054511D01*
X147849670Y-53082072D01*
X147848031Y-53341284D01*
X147827922Y-53408198D01*
X147774830Y-53453618D01*
X147730378Y-53463243D01*
X147730423Y-53464099D01*
X147730429Y-53464146D01*
X147730426Y-53464146D01*
X147730436Y-53464324D01*
X147727123Y-53464501D01*
X147667516Y-53470908D01*
X147532671Y-53521202D01*
X147532664Y-53521206D01*
X147417455Y-53607452D01*
X147417452Y-53607455D01*
X147331206Y-53722664D01*
X147331202Y-53722671D01*
X147280908Y-53857517D01*
X147274501Y-53917116D01*
X147274500Y-53917135D01*
X147274500Y-63162870D01*
X147274501Y-63162876D01*
X147280908Y-63222483D01*
X147331202Y-63357328D01*
X147331206Y-63357335D01*
X147396200Y-63444155D01*
X147420618Y-63509619D01*
X147405767Y-63577892D01*
X147398567Y-63587508D01*
X147399336Y-63588021D01*
X147399334Y-63588024D01*
X147386063Y-63604212D01*
X147384615Y-63606147D01*
X147383851Y-63606910D01*
X147383842Y-63606922D01*
X147289478Y-63701286D01*
X147239361Y-63788094D01*
X147239359Y-63788096D01*
X147210425Y-63838209D01*
X147210424Y-63838210D01*
X147210423Y-63838215D01*
X147169499Y-63990943D01*
X147169499Y-63990945D01*
X147169499Y-64159046D01*
X147169500Y-64159059D01*
X147169500Y-67549057D01*
X147210185Y-67700893D01*
X147210423Y-67701783D01*
X147210426Y-67701790D01*
X147289475Y-67838709D01*
X147289479Y-67838714D01*
X147289480Y-67838716D01*
X147401284Y-67950520D01*
X147401286Y-67950521D01*
X147401290Y-67950524D01*
X147486632Y-67999796D01*
X147534848Y-68050362D01*
X147548072Y-68118969D01*
X147522104Y-68183834D01*
X147498945Y-68206449D01*
X147417452Y-68267455D01*
X147331206Y-68382664D01*
X147331202Y-68382671D01*
X147280908Y-68517517D01*
X147274501Y-68577116D01*
X147274500Y-68577135D01*
X147274500Y-77822870D01*
X147274501Y-77822876D01*
X147280908Y-77882483D01*
X147331202Y-78017328D01*
X147331206Y-78017335D01*
X147417452Y-78132544D01*
X147417455Y-78132547D01*
X147532664Y-78218793D01*
X147532671Y-78218797D01*
X147660281Y-78266392D01*
X147716214Y-78308263D01*
X147740632Y-78373727D01*
X147740948Y-78382913D01*
X147740140Y-78678540D01*
X147720272Y-78745525D01*
X147703463Y-78766239D01*
X146546144Y-79914149D01*
X146484684Y-79947384D01*
X146459092Y-79950111D01*
X137349999Y-79970000D01*
X135519999Y-81800000D01*
X135529239Y-100979999D01*
X135530000Y-102560000D01*
X147903661Y-114993485D01*
X147936998Y-115054889D01*
X147939768Y-115081512D01*
X147920230Y-119428641D01*
X147900244Y-119495592D01*
X147883522Y-119516154D01*
X145696518Y-121683805D01*
X145635046Y-121717017D01*
X145608583Y-121719733D01*
X139931130Y-121690265D01*
X139864194Y-121670233D01*
X139843923Y-121653778D01*
X137436141Y-119236287D01*
X137402781Y-119174897D01*
X137400000Y-119148783D01*
X137400000Y-117729999D01*
X127890000Y-108260000D01*
X123621522Y-108260000D01*
X123554483Y-108240315D01*
X123533649Y-108223489D01*
X114496174Y-99146332D01*
X114462823Y-99084936D01*
X114460047Y-99058729D01*
X114470000Y-88220000D01*
X114393661Y-88195684D01*
X114296866Y-88164853D01*
X114238963Y-88125751D01*
X114211392Y-88061551D01*
X114210500Y-88046702D01*
X114210500Y-87634110D01*
X114210500Y-87634108D01*
X114176392Y-87506814D01*
X114110500Y-87392686D01*
X114017314Y-87299500D01*
X113956192Y-87264211D01*
X113903187Y-87233608D01*
X113839539Y-87216554D01*
X113775892Y-87199500D01*
X112575892Y-87199500D01*
X112444108Y-87199500D01*
X112316812Y-87233608D01*
X112202686Y-87299500D01*
X112202682Y-87299503D01*
X112105655Y-87396529D01*
X112044332Y-87430013D01*
X111980342Y-87426998D01*
X111770000Y-87360000D01*
X110352226Y-87360000D01*
X110347755Y-87359919D01*
X109500719Y-87329355D01*
X109481002Y-87327054D01*
X109264380Y-87283966D01*
X109264377Y-87283965D01*
X109264368Y-87283964D01*
X108970007Y-87264671D01*
X108969993Y-87264671D01*
X108675630Y-87283964D01*
X108675620Y-87283966D01*
X108623348Y-87294363D01*
X108594692Y-87296664D01*
X104578696Y-87151757D01*
X104512410Y-87129668D01*
X104495528Y-87115561D01*
X103890752Y-86511362D01*
X94040000Y-76670000D01*
X93960053Y-76620629D01*
X93807493Y-76526416D01*
X93760797Y-76474442D01*
X93749612Y-76405474D01*
X93754716Y-76382593D01*
X93784722Y-76290245D01*
X93820500Y-76064353D01*
X93820500Y-75835646D01*
X93784722Y-75609755D01*
X93784721Y-75609751D01*
X93784721Y-75609750D01*
X93714049Y-75392244D01*
X93610216Y-75188461D01*
X93475786Y-75003434D01*
X93314066Y-74841714D01*
X93129038Y-74707283D01*
X92925255Y-74603450D01*
X92707748Y-74532778D01*
X92538326Y-74505944D01*
X92481854Y-74497000D01*
X92158146Y-74497000D01*
X92082849Y-74508926D01*
X91932253Y-74532778D01*
X91932250Y-74532778D01*
X91714744Y-74603450D01*
X91510961Y-74707283D01*
X91325930Y-74841716D01*
X91293980Y-74873666D01*
X91232656Y-74907149D01*
X91206434Y-74909982D01*
X72611622Y-74929944D01*
X72544562Y-74910331D01*
X72523588Y-74893405D01*
X70606242Y-72966424D01*
X70572911Y-72905017D01*
X70570143Y-72878621D01*
X70579856Y-69401379D01*
X70599728Y-69334396D01*
X70616437Y-69313784D01*
X72183900Y-67755878D01*
X72245325Y-67722583D01*
X72270893Y-67719830D01*
X78230000Y-67700000D01*
X78229999Y-67699999D01*
X78230000Y-67699999D01*
X76470001Y-65940000D01*
X72821556Y-65930139D01*
X72754570Y-65910273D01*
X72733740Y-65893348D01*
X70955983Y-64096372D01*
X70922828Y-64034869D01*
X70920134Y-64008843D01*
X70929864Y-60311603D01*
X70949725Y-60244616D01*
X70966706Y-60223728D01*
X72583773Y-58625798D01*
X72645295Y-58592679D01*
X72670931Y-58590000D01*
X79638796Y-58590000D01*
X79705835Y-58609685D01*
X79726284Y-58626125D01*
X88820000Y-67680000D01*
X91988128Y-67680000D01*
X92055167Y-67699685D01*
X92100922Y-67752489D01*
X92111348Y-67790116D01*
X92114630Y-67819250D01*
X92114631Y-67819254D01*
X92174211Y-67989523D01*
X92225093Y-68070500D01*
X92270184Y-68142262D01*
X92397738Y-68269816D01*
X92413653Y-68279816D01*
X92480572Y-68321864D01*
X92526863Y-68374199D01*
X92537511Y-68443252D01*
X92509136Y-68507101D01*
X92480573Y-68531851D01*
X92387739Y-68590182D01*
X92260184Y-68717737D01*
X92164211Y-68870476D01*
X92104631Y-69040745D01*
X92104630Y-69040750D01*
X92084435Y-69219996D01*
X92084435Y-69220003D01*
X92104630Y-69399249D01*
X92104631Y-69399254D01*
X92164211Y-69569523D01*
X92220594Y-69659255D01*
X92260184Y-69722262D01*
X92387738Y-69849816D01*
X92431114Y-69877071D01*
X92496250Y-69917999D01*
X92540478Y-69945789D01*
X92644712Y-69982262D01*
X92710745Y-70005368D01*
X92710750Y-70005369D01*
X92889996Y-70025565D01*
X92890000Y-70025565D01*
X92890004Y-70025565D01*
X93069249Y-70005369D01*
X93069252Y-70005368D01*
X93069255Y-70005368D01*
X93239522Y-69945789D01*
X93392262Y-69849816D01*
X93519816Y-69722262D01*
X93615789Y-69569522D01*
X93675368Y-69399255D01*
X93682676Y-69334396D01*
X93695565Y-69220003D01*
X93695565Y-69219996D01*
X93675369Y-69040750D01*
X93675368Y-69040745D01*
X93615788Y-68870476D01*
X93576582Y-68808080D01*
X93519816Y-68717738D01*
X93392262Y-68590184D01*
X93392260Y-68590182D01*
X93309426Y-68538134D01*
X93263136Y-68485800D01*
X93252488Y-68416746D01*
X93280863Y-68352898D01*
X93309425Y-68328148D01*
X93402262Y-68269816D01*
X93529816Y-68142262D01*
X93625789Y-67989522D01*
X93685368Y-67819255D01*
X93685369Y-67819250D01*
X93688652Y-67790116D01*
X93715719Y-67725702D01*
X93773314Y-67686147D01*
X93811872Y-67680000D01*
X95148694Y-67680000D01*
X95215733Y-67699685D01*
X95236305Y-67716249D01*
X103141894Y-75609750D01*
X106887058Y-79349188D01*
X106910656Y-79382092D01*
X107026825Y-79617660D01*
X107026829Y-79617667D01*
X107190725Y-79862955D01*
X107385241Y-80084758D01*
X107607043Y-80279273D01*
X107852335Y-80443172D01*
X108091640Y-80561184D01*
X108124409Y-80584647D01*
X108280000Y-80740000D01*
X108894645Y-80740000D01*
X108902753Y-80740265D01*
X108915538Y-80741103D01*
X108979994Y-80745329D01*
X108980000Y-80745329D01*
X108980006Y-80745329D01*
X109044461Y-80741103D01*
X109057246Y-80740265D01*
X109065355Y-80740000D01*
X112012045Y-80740000D01*
X112079084Y-80759685D01*
X112103329Y-80781990D01*
X112103753Y-80781567D01*
X112109500Y-80787314D01*
X112202686Y-80880500D01*
X112316814Y-80946392D01*
X112444108Y-80980500D01*
X112444110Y-80980500D01*
X113775890Y-80980500D01*
X113775892Y-80980500D01*
X113903186Y-80946392D01*
X114017314Y-80880500D01*
X114110500Y-80787314D01*
X114110500Y-80787313D01*
X114116247Y-80781567D01*
X114117447Y-80782767D01*
X114166008Y-80747310D01*
X114207955Y-80740000D01*
X116308638Y-80740000D01*
X116375677Y-80759685D01*
X116396319Y-80776319D01*
X122043681Y-86423681D01*
X122077166Y-86485004D01*
X122080000Y-86511362D01*
X122080000Y-96640000D01*
X126410000Y-100980000D01*
X128510000Y-98860000D01*
X128510000Y-60121362D01*
X128529685Y-60054323D01*
X128546319Y-60033681D01*
X129990000Y-58590000D01*
X134374331Y-54205668D01*
X134386343Y-54195115D01*
X137380000Y-51890000D01*
X137673807Y-51605095D01*
X137735638Y-51572558D01*
X137760403Y-51570116D01*
X138814354Y-51572541D01*
G37*
%TD.AperFunction*%
%TD*%
M02*
