%TF.GenerationSoftware,KiCad,Pcbnew,8.0.0*%
%TF.CreationDate,2025-05-02T16:13:48+09:00*%
%TF.ProjectId,Capstone_Power_Distribution_Board_V1.5,43617073-746f-46e6-955f-506f7765725f,rev?*%
%TF.SameCoordinates,Original*%
%TF.FileFunction,Copper,L2,Inr*%
%TF.FilePolarity,Positive*%
%FSLAX46Y46*%
G04 Gerber Fmt 4.6, Leading zero omitted, Abs format (unit mm)*
G04 Created by KiCad (PCBNEW 8.0.0) date 2025-05-02 16:13:48*
%MOMM*%
%LPD*%
G01*
G04 APERTURE LIST*
G04 Aperture macros list*
%AMRoundRect*
0 Rectangle with rounded corners*
0 $1 Rounding radius*
0 $2 $3 $4 $5 $6 $7 $8 $9 X,Y pos of 4 corners*
0 Add a 4 corners polygon primitive as box body*
4,1,4,$2,$3,$4,$5,$6,$7,$8,$9,$2,$3,0*
0 Add four circle primitives for the rounded corners*
1,1,$1+$1,$2,$3*
1,1,$1+$1,$4,$5*
1,1,$1+$1,$6,$7*
1,1,$1+$1,$8,$9*
0 Add four rect primitives between the rounded corners*
20,1,$1+$1,$2,$3,$4,$5,0*
20,1,$1+$1,$4,$5,$6,$7,0*
20,1,$1+$1,$6,$7,$8,$9,0*
20,1,$1+$1,$8,$9,$2,$3,0*%
G04 Aperture macros list end*
%TA.AperFunction,ComponentPad*%
%ADD10RoundRect,0.250000X0.350000X0.625000X-0.350000X0.625000X-0.350000X-0.625000X0.350000X-0.625000X0*%
%TD*%
%TA.AperFunction,ComponentPad*%
%ADD11O,1.200000X1.750000*%
%TD*%
%TA.AperFunction,ComponentPad*%
%ADD12C,2.775000*%
%TD*%
%TA.AperFunction,ComponentPad*%
%ADD13R,3.800000X3.800000*%
%TD*%
%TA.AperFunction,ComponentPad*%
%ADD14C,4.000000*%
%TD*%
%TA.AperFunction,ComponentPad*%
%ADD15C,3.000000*%
%TD*%
%TA.AperFunction,ComponentPad*%
%ADD16R,1.650000X1.650000*%
%TD*%
%TA.AperFunction,ComponentPad*%
%ADD17C,1.650000*%
%TD*%
%TA.AperFunction,ComponentPad*%
%ADD18C,6.540000*%
%TD*%
%TA.AperFunction,ComponentPad*%
%ADD19C,5.640000*%
%TD*%
%TA.AperFunction,ComponentPad*%
%ADD20C,0.800000*%
%TD*%
%TA.AperFunction,ComponentPad*%
%ADD21C,6.400000*%
%TD*%
%TA.AperFunction,ComponentPad*%
%ADD22C,2.000000*%
%TD*%
%TA.AperFunction,ComponentPad*%
%ADD23C,5.000000*%
%TD*%
%TA.AperFunction,ComponentPad*%
%ADD24R,9.150000X9.150000*%
%TD*%
%TA.AperFunction,ComponentPad*%
%ADD25C,9.150000*%
%TD*%
%TA.AperFunction,ComponentPad*%
%ADD26O,8.300000X2.300000*%
%TD*%
%TA.AperFunction,ComponentPad*%
%ADD27O,2.300000X8.300000*%
%TD*%
%TA.AperFunction,ComponentPad*%
%ADD28RoundRect,0.250000X-0.600000X-0.675000X0.600000X-0.675000X0.600000X0.675000X-0.600000X0.675000X0*%
%TD*%
%TA.AperFunction,ComponentPad*%
%ADD29O,1.700000X1.850000*%
%TD*%
%TA.AperFunction,ComponentPad*%
%ADD30R,1.700000X1.700000*%
%TD*%
%TA.AperFunction,ComponentPad*%
%ADD31O,1.700000X1.700000*%
%TD*%
%TA.AperFunction,ComponentPad*%
%ADD32R,1.371600X1.371600*%
%TD*%
%TA.AperFunction,ComponentPad*%
%ADD33C,1.371600*%
%TD*%
%TA.AperFunction,ComponentPad*%
%ADD34R,2.000000X2.000000*%
%TD*%
%TA.AperFunction,ComponentPad*%
%ADD35R,2.000000X1.905000*%
%TD*%
%TA.AperFunction,ComponentPad*%
%ADD36O,2.000000X1.905000*%
%TD*%
%TA.AperFunction,ViaPad*%
%ADD37C,0.600000*%
%TD*%
%TA.AperFunction,Conductor*%
%ADD38C,1.500000*%
%TD*%
%TA.AperFunction,Conductor*%
%ADD39C,2.000000*%
%TD*%
%TA.AperFunction,Conductor*%
%ADD40C,0.500000*%
%TD*%
%TA.AperFunction,Conductor*%
%ADD41C,4.000000*%
%TD*%
G04 APERTURE END LIST*
D10*
%TO.N,+12V_PC*%
%TO.C,J22*%
X138980000Y-38350000D03*
D11*
X136980000Y-38350000D03*
%TO.N,GND*%
X134980000Y-38350000D03*
X132980000Y-38350000D03*
%TD*%
D12*
%TO.N,Net-(J7-Pin_1)*%
%TO.C,J7*%
X52460000Y-146000000D03*
%TO.N,+24V_BAT*%
X60710000Y-146000000D03*
%TD*%
D13*
%TO.N,GND*%
%TO.C,J20*%
X69250000Y-44930000D03*
D14*
%TO.N,/12V_SW_IN*%
X69250000Y-49930000D03*
%TD*%
D15*
%TO.N,+24V*%
%TO.C,TP10*%
X135320000Y-49670000D03*
%TD*%
D16*
%TO.N,Net-(J3-Pin_1)*%
%TO.C,K1*%
X157660000Y-130590000D03*
D17*
%TO.N,GND*%
X157660000Y-120390000D03*
D18*
%TO.N,+24V*%
X142260000Y-116590000D03*
D19*
%TO.N,+24V_relay*%
X145690000Y-135340000D03*
%TD*%
D20*
%TO.N,unconnected-(H3-Pad1)_1*%
%TO.C,H3*%
X87575216Y-150632652D03*
%TO.N,unconnected-(H3-Pad1)_6*%
X88278160Y-148935596D03*
%TO.N,unconnected-(H3-Pad1)_3*%
X88278160Y-152329708D03*
%TO.N,unconnected-(H3-Pad1)_5*%
X89975216Y-148232652D03*
D21*
%TO.N,unconnected-(H3-Pad1)_7*%
X89975216Y-150632652D03*
D20*
%TO.N,unconnected-(H3-Pad1)*%
X89975216Y-153032652D03*
%TO.N,unconnected-(H3-Pad1)_4*%
X91672272Y-148935596D03*
%TO.N,unconnected-(H3-Pad1)_2*%
X91672272Y-152329708D03*
%TO.N,unconnected-(H3-Pad1)_0*%
X92375216Y-150632652D03*
%TD*%
%TO.N,unconnected-(H2-Pad1)_5*%
%TO.C,H2*%
X149575216Y-38632652D03*
%TO.N,unconnected-(H2-Pad1)_3*%
X150278160Y-36935596D03*
%TO.N,unconnected-(H2-Pad1)_7*%
X150278160Y-40329708D03*
%TO.N,unconnected-(H2-Pad1)_1*%
X151975216Y-36232652D03*
D21*
%TO.N,unconnected-(H2-Pad1)_0*%
X151975216Y-38632652D03*
D20*
%TO.N,unconnected-(H2-Pad1)_4*%
X151975216Y-41032652D03*
%TO.N,unconnected-(H2-Pad1)_2*%
X153672272Y-36935596D03*
%TO.N,unconnected-(H2-Pad1)*%
X153672272Y-40329708D03*
%TO.N,unconnected-(H2-Pad1)_6*%
X154375216Y-38632652D03*
%TD*%
D22*
%TO.N,/PG_5V*%
%TO.C,TP4*%
X131120000Y-49670000D03*
%TD*%
D23*
%TO.N,+24V*%
%TO.C,J24*%
X74780000Y-62100000D03*
X74780000Y-71600000D03*
%TO.N,+12V_DCDC*%
X74780000Y-81100000D03*
X74780000Y-90600000D03*
%TO.N,+5V*%
X74780000Y-100100000D03*
X74780000Y-109600000D03*
%TO.N,+3.3V*%
X74780000Y-119100000D03*
X74780000Y-128600000D03*
%TD*%
D12*
%TO.N,Net-(J3-Pin_1)*%
%TO.C,J3*%
X142830000Y-147310000D03*
%TO.N,Net-(D2-A)*%
X151080000Y-147310000D03*
%TD*%
D15*
%TO.N,+24V_BAT*%
%TO.C,TP9*%
X158520000Y-141470000D03*
%TD*%
D22*
%TO.N,/EN_5V*%
%TO.C,TP2*%
X131120000Y-53470000D03*
%TD*%
%TO.N,Net-(U3B--)*%
%TO.C,TP3*%
X79850000Y-36780000D03*
%TD*%
%TO.N,Net-(U3B-+)*%
%TO.C,TP1*%
X76230000Y-36780000D03*
%TD*%
D12*
%TO.N,Net-(J19-Pin_1)*%
%TO.C,J19*%
X124030000Y-147330000D03*
%TO.N,Net-(D8-A)*%
X132280000Y-147330000D03*
%TD*%
D24*
%TO.N,GND*%
%TO.C,J8*%
X152350000Y-58540000D03*
D25*
%TO.N,+24V*%
X141350000Y-58540000D03*
%TD*%
D20*
%TO.N,unconnected-(H1-Pad1)_3*%
%TO.C,H1*%
X46575264Y-38632668D03*
%TO.N,unconnected-(H1-Pad1)_7*%
X47278208Y-36935612D03*
%TO.N,unconnected-(H1-Pad1)*%
X47278208Y-40329724D03*
%TO.N,unconnected-(H1-Pad1)_4*%
X48975264Y-36232668D03*
D21*
%TO.N,unconnected-(H1-Pad1)_0*%
X48975264Y-38632668D03*
D20*
%TO.N,unconnected-(H1-Pad1)_1*%
X48975264Y-41032668D03*
%TO.N,unconnected-(H1-Pad1)_2*%
X50672320Y-36935612D03*
%TO.N,unconnected-(H1-Pad1)_6*%
X50672320Y-40329724D03*
%TO.N,unconnected-(H1-Pad1)_5*%
X51375264Y-38632668D03*
%TD*%
D13*
%TO.N,+12V_DCDC*%
%TO.C,J15*%
X79020000Y-44930000D03*
D14*
%TO.N,/12V_SW_IN*%
X79020000Y-49930000D03*
%TD*%
D26*
%TO.N,Net-(J7-Pin_1)*%
%TO.C,U1*%
X117400000Y-108970000D03*
%TO.N,GND*%
X117400000Y-125770000D03*
%TO.N,+24V_BAT*%
X107500000Y-117370000D03*
D27*
%TO.N,unconnected-(U1-NC-Pad4)*%
X117400000Y-117370000D03*
%TO.N,+24V_relay*%
X125400000Y-117370000D03*
%TD*%
D15*
%TO.N,/12V_SW_IN*%
%TO.C,TP12*%
X74930000Y-41140000D03*
%TD*%
D22*
%TO.N,Net-(TP5-Pad1)*%
%TO.C,TP5*%
X83450000Y-36780000D03*
%TD*%
D28*
%TO.N,GND*%
%TO.C,J4*%
X71320000Y-141510000D03*
D29*
%TO.N,/GPIO_3*%
X73820000Y-141510000D03*
%TO.N,/GPIO_2*%
X76320000Y-141510000D03*
%TO.N,/GPIO_1*%
X78820000Y-141510000D03*
%TD*%
D30*
%TO.N,+5V*%
%TO.C,J2*%
X124425000Y-82120000D03*
D31*
X126965000Y-82120000D03*
%TO.N,GND*%
X124425000Y-84660000D03*
X126965000Y-84660000D03*
X124425000Y-87200000D03*
X126965000Y-87200000D03*
%TO.N,+24V*%
X124425000Y-89740000D03*
X126965000Y-89740000D03*
%TO.N,/VRP_5V*%
X124425000Y-92280000D03*
X126965000Y-92280000D03*
%TO.N,/EN_5V*%
X124425000Y-94820000D03*
%TO.N,/PG_5V*%
X126965000Y-94820000D03*
%TD*%
D28*
%TO.N,+24V_relay*%
%TO.C,J18*%
X97250000Y-137260000D03*
D29*
%TO.N,GND*%
X99750000Y-137260000D03*
%TD*%
D23*
%TO.N,GND*%
%TO.C,J25*%
X56680000Y-62100000D03*
X56680000Y-71600000D03*
X56680000Y-81100000D03*
X56680000Y-90600000D03*
X56680000Y-100100000D03*
X56680000Y-109600000D03*
X56680000Y-119100000D03*
X56680000Y-128600000D03*
%TD*%
D20*
%TO.N,unconnected-(H4-Pad1)_2*%
%TO.C,H4*%
X158574716Y-150632952D03*
%TO.N,unconnected-(H4-Pad1)_0*%
X159277660Y-148935896D03*
%TO.N,unconnected-(H4-Pad1)_3*%
X159277660Y-152330008D03*
%TO.N,unconnected-(H4-Pad1)*%
X160974716Y-148232952D03*
D21*
%TO.N,unconnected-(H4-Pad1)_7*%
X160974716Y-150632952D03*
D20*
%TO.N,unconnected-(H4-Pad1)_1*%
X160974716Y-153032952D03*
%TO.N,unconnected-(H4-Pad1)_4*%
X162671772Y-148935896D03*
%TO.N,unconnected-(H4-Pad1)_5*%
X162671772Y-152330008D03*
%TO.N,unconnected-(H4-Pad1)_6*%
X163374716Y-150632952D03*
%TD*%
D32*
%TO.N,+5V*%
%TO.C,BZ1*%
X54616750Y-47280000D03*
D33*
%TO.N,Net-(BZ1--)*%
X62216750Y-47280000D03*
%TD*%
D22*
%TO.N,/Expansion Sheet/PG*%
%TO.C,J23*%
X101800000Y-68417500D03*
%TO.N,/Expansion Sheet/MOD*%
X104340000Y-68417500D03*
D34*
%TO.N,GND*%
X106880000Y-68417500D03*
X109420000Y-68417500D03*
D22*
%TO.N,/Expansion Sheet/EN*%
X111960000Y-68417500D03*
%TD*%
D28*
%TO.N,/Blue*%
%TO.C,J5*%
X71320000Y-149730000D03*
D29*
%TO.N,/Green*%
X73820000Y-149730000D03*
%TO.N,/Red*%
X76320000Y-149730000D03*
%TO.N,+12V_PC*%
X78820000Y-149730000D03*
%TD*%
D24*
%TO.N,GND*%
%TO.C,J6*%
X152350000Y-73200000D03*
D25*
%TO.N,+24V*%
X141350000Y-73200000D03*
%TD*%
D15*
%TO.N,GND*%
%TO.C,TP21*%
X139460000Y-49670000D03*
%TD*%
D24*
%TO.N,GND*%
%TO.C,J13*%
X100550000Y-146790000D03*
D25*
%TO.N,+24V_BAT*%
X111550000Y-146790000D03*
%TD*%
D16*
%TO.N,Net-(J19-Pin_1)*%
%TO.C,K3*%
X137830000Y-89580000D03*
D17*
%TO.N,GND*%
X137830000Y-99780000D03*
D18*
%TO.N,+12V_PC*%
X153230000Y-103580000D03*
D19*
%TO.N,+12V_DCDC*%
X149800000Y-84830000D03*
%TD*%
D35*
%TO.N,/GPIO_3*%
%TO.C,Q3*%
X92310000Y-103210000D03*
D36*
%TO.N,/Blue*%
X92310000Y-100670000D03*
%TO.N,GND*%
X92310000Y-98130000D03*
%TD*%
D35*
%TO.N,/GPIO_1*%
%TO.C,Q1*%
X92320000Y-81030000D03*
D36*
%TO.N,/Red*%
X92320000Y-78490000D03*
%TO.N,GND*%
X92320000Y-75950000D03*
%TD*%
D35*
%TO.N,/GPIO_2*%
%TO.C,Q2*%
X92310000Y-92060000D03*
D36*
%TO.N,/Green*%
X92310000Y-89520000D03*
%TO.N,GND*%
X92310000Y-86980000D03*
%TD*%
D37*
%TO.N,GND*%
X85170000Y-123990000D03*
X148700000Y-120120000D03*
X157170000Y-125890000D03*
X135750000Y-138720000D03*
X152280000Y-117430000D03*
X86020000Y-134020000D03*
X152280000Y-120130000D03*
X115810000Y-69480000D03*
X94390000Y-83510000D03*
X88850000Y-120840000D03*
X148700000Y-121920000D03*
X160360000Y-118670000D03*
X159660000Y-136140000D03*
X133460000Y-138740000D03*
X157640000Y-117250000D03*
X92210000Y-83510000D03*
X102330000Y-96520000D03*
X152280000Y-118330000D03*
X160340000Y-117250000D03*
X155750000Y-125910000D03*
X156740000Y-117250000D03*
X95740000Y-86210000D03*
X97980000Y-67650000D03*
X88640000Y-122570000D03*
X154100000Y-135350000D03*
X159440000Y-117250000D03*
X96990000Y-86880000D03*
X153700000Y-117410000D03*
X131130000Y-138720000D03*
X129190000Y-138730000D03*
X100660000Y-101570000D03*
X98760000Y-103460000D03*
X84537107Y-130472893D03*
X155750000Y-122310000D03*
X103090000Y-125800000D03*
X157170000Y-124090000D03*
X84620000Y-129260000D03*
X118310000Y-150760000D03*
X96880000Y-92830000D03*
X100660000Y-94360000D03*
X153700000Y-120110000D03*
X100650000Y-95970000D03*
X152280000Y-121030000D03*
X158540000Y-117250000D03*
X115860000Y-67560000D03*
X152460000Y-144160000D03*
X103090000Y-121840000D03*
X155750000Y-124110000D03*
X103090000Y-123050000D03*
X148700000Y-122820000D03*
X102330000Y-97980000D03*
X158450000Y-138190000D03*
X152280000Y-119230000D03*
X103090000Y-124430000D03*
X102330000Y-99880000D03*
X153720000Y-147750000D03*
X153700000Y-121010000D03*
X157660000Y-118670000D03*
X100670000Y-105300000D03*
X103090000Y-119680000D03*
X154450000Y-142180000D03*
X153700000Y-119210000D03*
X159520000Y-129140000D03*
X100670000Y-89660000D03*
X148700000Y-125370000D03*
X148700000Y-124470000D03*
X93290000Y-82980000D03*
X97940000Y-107240000D03*
X148700000Y-127170000D03*
X158560000Y-118670000D03*
X148700000Y-126270000D03*
X94320000Y-86210000D03*
X102330000Y-86250000D03*
X100640000Y-103450000D03*
X156760000Y-118670000D03*
X155610000Y-129220000D03*
X102330000Y-103460000D03*
X159610000Y-133830000D03*
X155750000Y-123210000D03*
X95650000Y-82980000D03*
X102330000Y-101560000D03*
X157170000Y-123190000D03*
X157600000Y-128320000D03*
X155510000Y-146080000D03*
X103090000Y-120770000D03*
X102330000Y-93010000D03*
X148700000Y-121020000D03*
X155750000Y-125010000D03*
X153700000Y-118310000D03*
X157170000Y-122290000D03*
X155630000Y-133800000D03*
X97950000Y-69220000D03*
X98770000Y-105270000D03*
X96950000Y-99590000D03*
X102330000Y-91110000D03*
X152510000Y-136880000D03*
X159640000Y-131340000D03*
X88660000Y-125180000D03*
X102330000Y-89890000D03*
X102330000Y-94620000D03*
X96870000Y-83510000D03*
X102330000Y-87990000D03*
X157170000Y-124990000D03*
X159460000Y-118670000D03*
X100680000Y-88370000D03*
X155660000Y-131350000D03*
%TO.N,+24V*%
X134200000Y-58780000D03*
X129320000Y-108570000D03*
X121450000Y-101110000D03*
X108280000Y-85500000D03*
X142710000Y-65120000D03*
X135560000Y-71010000D03*
X130750000Y-61270000D03*
X109700000Y-83680000D03*
X135560000Y-73710000D03*
X116980000Y-96630000D03*
X130750000Y-64640000D03*
X135620000Y-59660000D03*
X115770000Y-89750000D03*
X115770000Y-88850000D03*
X85520000Y-66870000D03*
X134140000Y-73730000D03*
X137290000Y-105690000D03*
X136210000Y-66560000D03*
X120030000Y-99330000D03*
X137990000Y-65140000D03*
X135870000Y-111110000D03*
X135870000Y-112010000D03*
X116080000Y-83640000D03*
X138910000Y-66560000D03*
X135870000Y-110210000D03*
X118400000Y-96610000D03*
X135560000Y-70110000D03*
X143630000Y-66540000D03*
X116080000Y-81840000D03*
X145430000Y-66540000D03*
X85520000Y-69570000D03*
X118400000Y-98410000D03*
X139810000Y-66560000D03*
X114660000Y-84560000D03*
X85520000Y-67770000D03*
X138010000Y-66560000D03*
X135870000Y-106610000D03*
X135870000Y-109310000D03*
X114660000Y-83660000D03*
X109700000Y-84580000D03*
X121450000Y-98410000D03*
X86940000Y-68650000D03*
X137290000Y-109290000D03*
X109700000Y-82780000D03*
X134200000Y-60580000D03*
X121450000Y-100210000D03*
X142730000Y-66540000D03*
X86940000Y-69550000D03*
X85520000Y-70470000D03*
X144530000Y-66540000D03*
X86940000Y-70450000D03*
X116080000Y-85440000D03*
X130740000Y-106750000D03*
X108280000Y-83700000D03*
X86940000Y-66850000D03*
X135620000Y-57860000D03*
X114660000Y-82760000D03*
X118400000Y-99310000D03*
X130750000Y-63430000D03*
X135870000Y-107510000D03*
X116980000Y-98430000D03*
X135560000Y-71910000D03*
X115770000Y-87950000D03*
X137290000Y-107490000D03*
X130740000Y-107650000D03*
X116080000Y-84540000D03*
X134200000Y-59680000D03*
X120030000Y-101130000D03*
X135870000Y-105710000D03*
X86940000Y-67750000D03*
X118400000Y-97510000D03*
X130750000Y-62360000D03*
X116980000Y-97530000D03*
X108280000Y-84600000D03*
X130750000Y-67390000D03*
X136190000Y-65140000D03*
X120030000Y-102030000D03*
X114660000Y-81860000D03*
X145410000Y-65120000D03*
X129320000Y-107670000D03*
X143610000Y-65120000D03*
X134200000Y-56980000D03*
X137090000Y-65140000D03*
X146330000Y-66540000D03*
X134140000Y-72830000D03*
X120030000Y-100230000D03*
X109700000Y-81880000D03*
X135870000Y-108410000D03*
X130750000Y-66020000D03*
X134200000Y-57880000D03*
X117190000Y-89730000D03*
X134140000Y-71030000D03*
X129320000Y-106770000D03*
X121450000Y-99310000D03*
X144510000Y-65120000D03*
X130740000Y-108550000D03*
X137290000Y-111090000D03*
X134140000Y-70130000D03*
X135620000Y-58760000D03*
X135560000Y-72810000D03*
X85520000Y-68670000D03*
X129320000Y-104970000D03*
X116080000Y-82740000D03*
X139790000Y-65140000D03*
X120030000Y-98430000D03*
X146310000Y-65120000D03*
X130740000Y-105850000D03*
X116980000Y-95730000D03*
X129320000Y-105870000D03*
X108280000Y-81900000D03*
X117190000Y-87930000D03*
X116980000Y-99330000D03*
X137290000Y-108390000D03*
X117190000Y-88830000D03*
X137110000Y-66560000D03*
X135620000Y-60560000D03*
X121450000Y-102010000D03*
X134140000Y-71930000D03*
X114660000Y-85460000D03*
X109700000Y-85480000D03*
X137290000Y-106590000D03*
X138890000Y-65140000D03*
X135620000Y-56960000D03*
X108280000Y-82800000D03*
X130740000Y-104950000D03*
X118400000Y-95710000D03*
X137290000Y-110190000D03*
%TO.N,Net-(U2-SW)*%
X90237863Y-120744963D03*
X94160000Y-119760000D03*
%TO.N,+24V_BAT*%
X118200000Y-152360000D03*
X154540000Y-149360000D03*
X111550000Y-133210000D03*
X157280000Y-146620000D03*
X151540000Y-152360000D03*
X122470000Y-152360000D03*
X127060000Y-152360000D03*
X131760000Y-152360000D03*
X141900000Y-152350000D03*
X146870000Y-152350000D03*
X158520000Y-144740000D03*
X136470000Y-152350000D03*
%TO.N,Net-(U2-COMP)*%
X90410000Y-128150000D03*
X87038952Y-124138110D03*
%TO.N,+5V*%
X80030000Y-133930000D03*
X83100000Y-146800000D03*
X83110000Y-134510000D03*
%TO.N,/GPIO_1*%
X90700000Y-84410000D03*
%TO.N,/GPIO_2*%
X90860000Y-95190000D03*
%TO.N,/GPIO_3*%
X95970000Y-98610000D03*
X94470000Y-107460000D03*
%TO.N,Net-(J3-Pin_1)*%
X157660000Y-134170000D03*
X150920000Y-142670000D03*
X155800000Y-137790000D03*
X148120000Y-145470000D03*
X153130000Y-140490000D03*
%TO.N,Net-(U3A-+)*%
X52650000Y-55790000D03*
X52730000Y-53200000D03*
%TO.N,+12V_DCDC*%
X120860000Y-67560000D03*
X120840000Y-69480000D03*
%TO.N,Net-(J19-Pin_1)*%
X132640000Y-143860000D03*
X140190000Y-91940000D03*
X144300000Y-100060000D03*
X129690000Y-143860000D03*
X135730000Y-143860000D03*
X148620000Y-106410000D03*
X150660000Y-125580000D03*
X150660000Y-130420000D03*
X139490000Y-143880000D03*
X145330000Y-103120000D03*
X145700000Y-143710000D03*
X150550000Y-108380000D03*
X150660000Y-114160000D03*
X150660000Y-110690000D03*
X150660000Y-120050000D03*
X142620000Y-94370000D03*
X144300000Y-97030000D03*
X143070000Y-143860000D03*
X150680000Y-134960000D03*
%TO.N,+12V_PC*%
X162140000Y-83870000D03*
X162140000Y-89160000D03*
X162100000Y-71460000D03*
X160340000Y-54110000D03*
X156680000Y-50500000D03*
X152529837Y-47550713D03*
X157090000Y-99710000D03*
X141840000Y-45400000D03*
X159820000Y-96940000D03*
X162060000Y-65170000D03*
X146860000Y-47560000D03*
X162130000Y-78190000D03*
X161970000Y-94480000D03*
X162150000Y-59080000D03*
X138660000Y-42230000D03*
%TO.N,+24V_relay*%
X129770000Y-124170000D03*
X138320000Y-131150000D03*
X128350000Y-126890000D03*
X138340000Y-132570000D03*
X129770000Y-123270000D03*
X136540000Y-132570000D03*
X135640000Y-132570000D03*
X137440000Y-132570000D03*
X128350000Y-123290000D03*
X139240000Y-132570000D03*
X139210000Y-129870000D03*
X135610000Y-129870000D03*
X140120000Y-131150000D03*
X129770000Y-125970000D03*
X128350000Y-125990000D03*
X92900000Y-67640000D03*
X133820000Y-131150000D03*
X128350000Y-124190000D03*
X129770000Y-120570000D03*
X129770000Y-119670000D03*
X141040000Y-132570000D03*
X92890000Y-69220000D03*
X141010000Y-129870000D03*
X105080000Y-105450000D03*
X104950000Y-96560000D03*
X136510000Y-129870000D03*
X129770000Y-121470000D03*
X139220000Y-131150000D03*
X104950000Y-92580000D03*
X128350000Y-122390000D03*
X128350000Y-121490000D03*
X140110000Y-129870000D03*
X128350000Y-120590000D03*
X134740000Y-132570000D03*
X134710000Y-129870000D03*
X141020000Y-131150000D03*
X141920000Y-131150000D03*
X128350000Y-125090000D03*
X135620000Y-131150000D03*
X140140000Y-132570000D03*
X128350000Y-119690000D03*
X137420000Y-131150000D03*
X133840000Y-132570000D03*
X134720000Y-131150000D03*
X136520000Y-131150000D03*
X137410000Y-129870000D03*
X129770000Y-125070000D03*
X128350000Y-118790000D03*
X138310000Y-129870000D03*
X129770000Y-118770000D03*
X141910000Y-129870000D03*
X129770000Y-122370000D03*
%TO.N,Net-(U2-EN)*%
X91370000Y-128190000D03*
X88900000Y-123930000D03*
%TO.N,/compare*%
X52740000Y-48640000D03*
X51802712Y-55789349D03*
%TO.N,Net-(U3B-+)*%
X57439143Y-52040857D03*
%TO.N,Net-(U3B--)*%
X57450000Y-53060000D03*
%TO.N,Net-(TP5-Pad1)*%
X57410000Y-54020000D03*
%TD*%
D38*
%TO.N,+5V*%
X74780000Y-99770000D02*
X74780000Y-100100000D01*
X74780000Y-100100000D02*
X74780000Y-109600000D01*
D39*
X126965000Y-82120000D02*
X124425000Y-82120000D01*
D40*
%TO.N,/GPIO_1*%
X101440000Y-87420000D02*
X101440000Y-128170000D01*
X90700000Y-84410000D02*
X98430000Y-84410000D01*
X101440000Y-128170000D02*
X88100000Y-141510000D01*
X98430000Y-84410000D02*
X101440000Y-87420000D01*
X88100000Y-141510000D02*
X78820000Y-141510000D01*
%TO.N,/GPIO_2*%
X95648677Y-95190000D02*
X95648677Y-95880000D01*
X97523526Y-95603526D02*
X99750000Y-97830000D01*
X93548677Y-95190000D02*
X93548677Y-94500000D01*
X93548677Y-95880000D02*
X93548677Y-95190000D01*
X94248677Y-95190000D02*
X94248677Y-95880000D01*
X96768677Y-95190000D02*
X97110000Y-95190000D01*
X95648677Y-94500000D02*
X95648677Y-95190000D01*
X77920000Y-139910000D02*
X76320000Y-141510000D01*
X94528677Y-96160000D02*
X94668677Y-96160000D01*
X94948677Y-95190000D02*
X94948677Y-94500000D01*
X96348677Y-95880000D02*
X96348677Y-95470000D01*
X92848677Y-94910000D02*
X92848677Y-95880000D01*
X93128677Y-96160000D02*
X93268677Y-96160000D01*
X99750000Y-128090000D02*
X87930000Y-139910000D01*
X94248677Y-94500000D02*
X94248677Y-95190000D01*
X93828677Y-94220000D02*
X93968677Y-94220000D01*
X92148677Y-94910000D02*
X92148677Y-94500000D01*
X99750000Y-97830000D02*
X99750000Y-128090000D01*
X94948677Y-95880000D02*
X94948677Y-95190000D01*
X92428677Y-94220000D02*
X92568677Y-94220000D01*
X90860000Y-95190000D02*
X91868677Y-95190000D01*
X96628677Y-95190000D02*
X96768677Y-95190000D01*
X95228677Y-94220000D02*
X95368677Y-94220000D01*
X92848677Y-94500000D02*
X92848677Y-94910000D01*
X87930000Y-139910000D02*
X77920000Y-139910000D01*
X95928677Y-96160000D02*
X96068677Y-96160000D01*
X97110000Y-95190000D02*
X97523526Y-95603526D01*
X91868677Y-95190000D02*
G75*
G03*
X92148700Y-94910000I23J280000D01*
G01*
X96348677Y-95470000D02*
G75*
G02*
X96628677Y-95189977I280023J0D01*
G01*
X96068677Y-96160000D02*
G75*
G03*
X96348700Y-95880000I23J280000D01*
G01*
X95648677Y-95880000D02*
G75*
G03*
X95928677Y-96160023I280023J0D01*
G01*
X93268677Y-96160000D02*
G75*
G03*
X93548700Y-95880000I23J280000D01*
G01*
X92148677Y-94500000D02*
G75*
G02*
X92428677Y-94219977I280023J0D01*
G01*
X94948677Y-94500000D02*
G75*
G02*
X95228677Y-94219977I280023J0D01*
G01*
X93548677Y-94500000D02*
G75*
G02*
X93828677Y-94219977I280023J0D01*
G01*
X95368677Y-94220000D02*
G75*
G02*
X95648700Y-94500000I23J-280000D01*
G01*
X94248677Y-95880000D02*
G75*
G03*
X94528677Y-96160023I280023J0D01*
G01*
X92568677Y-94220000D02*
G75*
G02*
X92848700Y-94500000I23J-280000D01*
G01*
X92848677Y-95880000D02*
G75*
G03*
X93128677Y-96160023I280023J0D01*
G01*
X93968677Y-94220000D02*
G75*
G02*
X94248700Y-94500000I23J-280000D01*
G01*
X94668677Y-96160000D02*
G75*
G03*
X94948700Y-95880000I23J280000D01*
G01*
%TO.N,/GPIO_3*%
X99050000Y-112280000D02*
X99050000Y-112420000D01*
X87500000Y-138430000D02*
X76900000Y-138430000D01*
X98240000Y-112700000D02*
X96650000Y-112700000D01*
X97736116Y-108893497D02*
X96809805Y-109819805D01*
X98770000Y-114100000D02*
X98240000Y-114100000D01*
X96809805Y-109819805D02*
X95883495Y-110746114D01*
X96746167Y-107903549D02*
X96017848Y-108631869D01*
X97960000Y-114380000D02*
X97960000Y-114520000D01*
X97960000Y-127970000D02*
X87500000Y-138430000D01*
X99050000Y-113680000D02*
X99050000Y-113820000D01*
X96650000Y-113400000D02*
X97960000Y-113400000D01*
X94893549Y-110152148D02*
X94992543Y-110251142D01*
X97960000Y-110970000D02*
X97960000Y-111720000D01*
X98240000Y-112000000D02*
X98770000Y-112000000D01*
X97960000Y-114990000D02*
X97960000Y-127970000D01*
X94470000Y-107460000D02*
X94470000Y-107480000D01*
X96370000Y-112980000D02*
X96370000Y-113120000D01*
X76900000Y-138430000D02*
X73820000Y-141510000D01*
X97960000Y-113400000D02*
X98770000Y-113400000D01*
X96378469Y-111241088D02*
X97106788Y-110512768D01*
X96647173Y-107408575D02*
X96746167Y-107507569D01*
X95883495Y-111142094D02*
X95982489Y-111241088D01*
X97601764Y-110611764D02*
X97960000Y-110970000D01*
X95388523Y-110251142D02*
X96314832Y-109324832D01*
X96017848Y-108631869D02*
X94893549Y-109756168D01*
X96314832Y-109324832D02*
X97241140Y-108398521D01*
X97637122Y-108398523D02*
X97736116Y-108497517D01*
X97960000Y-114520000D02*
X97960000Y-114990000D01*
X94470000Y-107480000D02*
X95126895Y-108136895D01*
X97502768Y-110512768D02*
X97601764Y-110611764D01*
X98770000Y-112700000D02*
X98240000Y-112700000D01*
X95522875Y-108136896D02*
X96251193Y-107408575D01*
X97106788Y-110512768D02*
G75*
G02*
X97502768Y-110512768I197990J-197990D01*
G01*
X94893549Y-109756168D02*
G75*
G03*
X94893507Y-110152190I197951J-198032D01*
G01*
X96746166Y-107507570D02*
G75*
G02*
X96746207Y-107903589I-197966J-198030D01*
G01*
X98240000Y-114100000D02*
G75*
G03*
X97960000Y-114380000I0J-280000D01*
G01*
X98770000Y-112000000D02*
G75*
G02*
X99050000Y-112280000I0J-280000D01*
G01*
X99050000Y-113820000D02*
G75*
G02*
X98770000Y-114100000I-280000J0D01*
G01*
X97736116Y-108497517D02*
G75*
G02*
X97736109Y-108893490I-198016J-197983D01*
G01*
X98770000Y-113400000D02*
G75*
G02*
X99050000Y-113680000I0J-280000D01*
G01*
X96370000Y-113120000D02*
G75*
G03*
X96650000Y-113400000I280000J0D01*
G01*
X94992543Y-110251142D02*
G75*
G03*
X95388523Y-110251142I197990J197990D01*
G01*
X96650000Y-112700000D02*
G75*
G03*
X96370000Y-112980000I0J-280000D01*
G01*
X97960000Y-111720000D02*
G75*
G03*
X98240000Y-112000000I280000J0D01*
G01*
X95883496Y-110746115D02*
G75*
G03*
X95883500Y-111142089I198004J-197985D01*
G01*
X95982489Y-111241088D02*
G75*
G03*
X96378469Y-111241088I197990J197990D01*
G01*
X99050000Y-112420000D02*
G75*
G02*
X98770000Y-112700000I-280000J0D01*
G01*
X95126895Y-108136895D02*
G75*
G03*
X95522889Y-108136910I198005J197995D01*
G01*
X97241140Y-108398521D02*
G75*
G02*
X97637092Y-108398553I197960J-197979D01*
G01*
X96251193Y-107408575D02*
G75*
G02*
X96647173Y-107408575I197990J-197990D01*
G01*
D38*
%TO.N,/Green*%
X67830000Y-152360000D02*
X72300000Y-152360000D01*
X90997500Y-89520000D02*
X86467500Y-94050000D01*
X92310000Y-89520000D02*
X90997500Y-89520000D01*
X86467500Y-94050000D02*
X70760000Y-94050000D01*
X64230000Y-100580000D02*
X64230000Y-148760000D01*
X72300000Y-152360000D02*
X73820000Y-150840000D01*
X70760000Y-94050000D02*
X64230000Y-100580000D01*
X73820000Y-150840000D02*
X73820000Y-149730000D01*
X64230000Y-148760000D02*
X67830000Y-152360000D01*
%TO.N,/Blue*%
X71490000Y-96650000D02*
X87840000Y-96650000D01*
X67060000Y-101080000D02*
X71490000Y-96650000D01*
X71320000Y-149730000D02*
X69380000Y-149730000D01*
X69380000Y-149730000D02*
X67060000Y-147410000D01*
X67060000Y-147410000D02*
X67060000Y-101080000D01*
X87840000Y-96650000D02*
X91860000Y-100670000D01*
X91860000Y-100670000D02*
X92310000Y-100670000D01*
D41*
%TO.N,+12V_DCDC*%
X80670000Y-75210000D02*
X82270000Y-73610000D01*
X80670000Y-75210000D02*
X74780000Y-81100000D01*
X82270000Y-73610000D02*
X82270000Y-62943196D01*
X75580000Y-90600000D02*
X74780000Y-90600000D01*
X82270000Y-62943196D02*
X83220000Y-61993196D01*
X86630000Y-79550000D02*
X75580000Y-90600000D01*
D38*
X80290000Y-75590000D02*
X80670000Y-75210000D01*
D41*
X86630000Y-75490000D02*
X86630000Y-79550000D01*
X128470000Y-72350000D02*
X89770000Y-72350000D01*
X89770000Y-72350000D02*
X86630000Y-75490000D01*
X149800000Y-84830000D02*
X140950000Y-84830000D01*
X81190000Y-44930000D02*
X79020000Y-44930000D01*
X83220000Y-61993196D02*
X83220000Y-46960000D01*
X83220000Y-46960000D02*
X81190000Y-44930000D01*
X140950000Y-84830000D02*
X128470000Y-72350000D01*
X74780000Y-81100000D02*
X74780000Y-90600000D01*
D38*
%TO.N,+12V_PC*%
X135327767Y-123080000D02*
X118417767Y-139990000D01*
X153230000Y-103580000D02*
X147780000Y-103580000D01*
X82490000Y-149730000D02*
X78820000Y-149730000D01*
X92230000Y-139990000D02*
X82490000Y-149730000D01*
X147780000Y-103580000D02*
X135327767Y-116032233D01*
X118417767Y-139990000D02*
X92230000Y-139990000D01*
X135327767Y-116032233D02*
X135327767Y-123080000D01*
%TD*%
%TA.AperFunction,Conductor*%
%TO.N,+5V*%
G36*
X75528753Y-106121655D02*
G01*
X75531936Y-106127549D01*
X75779240Y-107318364D01*
X75778498Y-107325444D01*
X74790714Y-109576583D01*
X74784252Y-109582782D01*
X74775299Y-109582596D01*
X74769286Y-109576583D01*
X74746426Y-109524487D01*
X73781500Y-107325442D01*
X73780759Y-107318366D01*
X74028064Y-106127548D01*
X74033102Y-106120145D01*
X74039520Y-106118228D01*
X75520480Y-106118228D01*
X75528753Y-106121655D01*
G37*
%TD.AperFunction*%
%TD*%
%TA.AperFunction,Conductor*%
%TO.N,+5V*%
G36*
X74784701Y-100117403D02*
G01*
X74790714Y-100123416D01*
X75778498Y-102374554D01*
X75779240Y-102381634D01*
X75531936Y-103572451D01*
X75526898Y-103579855D01*
X75520480Y-103581772D01*
X74039520Y-103581772D01*
X74031247Y-103578345D01*
X74028064Y-103572451D01*
X73780759Y-102381634D01*
X73781500Y-102374556D01*
X74769286Y-100123415D01*
X74775748Y-100117217D01*
X74784701Y-100117403D01*
G37*
%TD.AperFunction*%
%TD*%
%TA.AperFunction,Conductor*%
%TO.N,/GPIO_1*%
G36*
X90712618Y-84111051D02*
G01*
X91289272Y-84159106D01*
X91297232Y-84163208D01*
X91300000Y-84170766D01*
X91300000Y-84649234D01*
X91296573Y-84657507D01*
X91289272Y-84660894D01*
X90712629Y-84708947D01*
X90704099Y-84706219D01*
X90699997Y-84698259D01*
X90699957Y-84697345D01*
X90699000Y-84410000D01*
X90699957Y-84122671D01*
X90703411Y-84114411D01*
X90711696Y-84111012D01*
X90712618Y-84111051D01*
G37*
%TD.AperFunction*%
%TD*%
%TA.AperFunction,Conductor*%
%TO.N,/GPIO_1*%
G36*
X79301609Y-140732323D02*
G01*
X80509083Y-141256942D01*
X80515306Y-141263382D01*
X80516121Y-141267673D01*
X80516121Y-141752326D01*
X80512694Y-141760599D01*
X80509083Y-141763057D01*
X79301611Y-142287675D01*
X79292658Y-142287829D01*
X79286941Y-142283003D01*
X78822666Y-141516057D01*
X78821314Y-141507207D01*
X78822665Y-141503945D01*
X79286942Y-140736994D01*
X79294156Y-140731693D01*
X79301609Y-140732323D01*
G37*
%TD.AperFunction*%
%TD*%
%TA.AperFunction,Conductor*%
%TO.N,/GPIO_2*%
G36*
X77373015Y-140108174D02*
G01*
X77376750Y-140110685D01*
X77719159Y-140453094D01*
X77722586Y-140461367D01*
X77721603Y-140466061D01*
X77068844Y-141956314D01*
X77062386Y-141962517D01*
X77053433Y-141962337D01*
X77051995Y-141961584D01*
X76323740Y-141513443D01*
X76318490Y-141506189D01*
X76318360Y-141505569D01*
X76155868Y-140610670D01*
X76157762Y-140601921D01*
X76162961Y-140597750D01*
X77364061Y-140108124D01*
X77373015Y-140108174D01*
G37*
%TD.AperFunction*%
%TD*%
%TA.AperFunction,Conductor*%
%TO.N,/GPIO_2*%
G36*
X90872618Y-94891051D02*
G01*
X91449272Y-94939106D01*
X91457232Y-94943208D01*
X91460000Y-94950766D01*
X91460000Y-95429234D01*
X91456573Y-95437507D01*
X91449272Y-95440894D01*
X90872629Y-95488947D01*
X90864099Y-95486219D01*
X90859997Y-95478259D01*
X90859957Y-95477345D01*
X90859000Y-95190000D01*
X90859957Y-94902671D01*
X90863411Y-94894411D01*
X90871696Y-94891012D01*
X90872618Y-94891051D01*
G37*
%TD.AperFunction*%
%TD*%
%TA.AperFunction,Conductor*%
%TO.N,/GPIO_3*%
G36*
X74873015Y-140108174D02*
G01*
X74876750Y-140110685D01*
X75219159Y-140453094D01*
X75222586Y-140461367D01*
X75221603Y-140466061D01*
X74568844Y-141956314D01*
X74562386Y-141962517D01*
X74553433Y-141962337D01*
X74551995Y-141961584D01*
X73823740Y-141513443D01*
X73818490Y-141506189D01*
X73818360Y-141505569D01*
X73655868Y-140610670D01*
X73657762Y-140601921D01*
X73662961Y-140597750D01*
X74864061Y-140108124D01*
X74873015Y-140108174D01*
G37*
%TD.AperFunction*%
%TD*%
%TA.AperFunction,Conductor*%
%TO.N,/GPIO_3*%
G36*
X94689470Y-107257070D02*
G01*
X94690274Y-107257969D01*
X95024097Y-107672132D01*
X95052455Y-107707314D01*
X95054979Y-107715905D01*
X95051619Y-107722929D01*
X94713289Y-108061259D01*
X94705016Y-108064686D01*
X94697254Y-108061740D01*
X94267133Y-107680347D01*
X94263216Y-107672294D01*
X94266141Y-107663831D01*
X94266583Y-107663358D01*
X94469293Y-107459293D01*
X94672924Y-107257014D01*
X94681208Y-107253616D01*
X94689470Y-107257070D01*
G37*
%TD.AperFunction*%
%TD*%
%TA.AperFunction,Conductor*%
%TO.N,/Green*%
G36*
X92011474Y-88616508D02*
G01*
X92017792Y-88622854D01*
X92018093Y-88623673D01*
X92310033Y-89517231D01*
X92310597Y-89521456D01*
X92263053Y-90461554D01*
X92259213Y-90469643D01*
X92251542Y-90472662D01*
X91093170Y-90489862D01*
X91084847Y-90486558D01*
X91084723Y-90486436D01*
X90039976Y-89441689D01*
X90036549Y-89433416D01*
X90039976Y-89425143D01*
X90043793Y-89422597D01*
X92002519Y-88616487D01*
X92011474Y-88616508D01*
G37*
%TD.AperFunction*%
%TD*%
%TA.AperFunction,Conductor*%
%TO.N,/Green*%
G36*
X72988730Y-149588996D02*
G01*
X73818962Y-149728998D01*
X73822285Y-149730090D01*
X74582667Y-150114059D01*
X74588507Y-150120847D01*
X74588219Y-150128939D01*
X73898319Y-151812736D01*
X73892012Y-151819092D01*
X73883057Y-151819126D01*
X73879220Y-151816573D01*
X72835031Y-150772384D01*
X72831604Y-150764111D01*
X72831690Y-150762696D01*
X72975203Y-149599103D01*
X72979616Y-149591314D01*
X72988246Y-149588926D01*
X72988730Y-149588996D01*
G37*
%TD.AperFunction*%
%TD*%
%TA.AperFunction,Conductor*%
%TO.N,/Blue*%
G36*
X70544743Y-148883153D02*
G01*
X70546036Y-148884365D01*
X71313755Y-149722095D01*
X71316818Y-149730510D01*
X71313755Y-149737905D01*
X70546036Y-150575634D01*
X70537920Y-150579418D01*
X70536148Y-150579361D01*
X69630438Y-150481132D01*
X69622583Y-150476833D01*
X69620000Y-150469500D01*
X69620000Y-148990499D01*
X69623427Y-148982226D01*
X69630435Y-148978868D01*
X70536149Y-148880638D01*
X70544743Y-148883153D01*
G37*
%TD.AperFunction*%
%TD*%
%TA.AperFunction,Conductor*%
%TO.N,/Blue*%
G36*
X91294069Y-99039849D02*
G01*
X91964282Y-99398310D01*
X92763268Y-99825645D01*
X92768947Y-99832569D01*
X92768067Y-99841480D01*
X92767995Y-99841613D01*
X92311538Y-100669199D01*
X92309478Y-100671909D01*
X91626929Y-101340070D01*
X91618619Y-101343408D01*
X91610926Y-101340414D01*
X90234941Y-100104665D01*
X90231076Y-100096587D01*
X90234054Y-100088142D01*
X90234467Y-100087706D01*
X91280280Y-99041893D01*
X91288552Y-99038467D01*
X91294069Y-99039849D01*
G37*
%TD.AperFunction*%
%TD*%
%TA.AperFunction,Conductor*%
%TO.N,+12V_PC*%
G36*
X150140257Y-102580959D02*
G01*
X152411175Y-103315002D01*
X153196557Y-103568867D01*
X153203375Y-103574672D01*
X153204091Y-103583599D01*
X153198286Y-103590417D01*
X153196557Y-103591133D01*
X150140260Y-104579039D01*
X150134231Y-104579350D01*
X149852960Y-104519622D01*
X148969270Y-104331968D01*
X148961889Y-104326897D01*
X148960000Y-104320523D01*
X148960000Y-102839476D01*
X148963427Y-102831203D01*
X148969268Y-102828031D01*
X150134235Y-102580648D01*
X150140257Y-102580959D01*
G37*
%TD.AperFunction*%
%TD*%
%TA.AperFunction,Conductor*%
%TO.N,+12V_PC*%
G36*
X80505263Y-148979218D02*
G01*
X80513267Y-148983229D01*
X80516121Y-148990887D01*
X80516121Y-150469112D01*
X80512694Y-150477385D01*
X80505261Y-150480782D01*
X79136282Y-150579364D01*
X79127784Y-150576540D01*
X79124445Y-150571686D01*
X78820448Y-149733990D01*
X78820448Y-149726009D01*
X79087221Y-148990887D01*
X79124445Y-148888312D01*
X79130487Y-148881706D01*
X79136281Y-148880635D01*
X80505263Y-148979218D01*
G37*
%TD.AperFunction*%
%TD*%
M02*
