M48
; DRILL file {KiCad 8.0.0} date 2025-05-02T16:13:53+0900
; FORMAT={-:-/ absolute / metric / decimal}
; #@! TF.CreationDate,2025-05-02T16:13:53+09:00
; #@! TF.GenerationSoftware,Kicad,Pcbnew,8.0.0
; #@! TF.FileFunction,Plated,1,4,PTH
FMAT,2
METRIC
; #@! TA.AperFunction,Plated,PTH,ViaDrill
T1C0.300
; #@! TA.AperFunction,Plated,PTH,ComponentDrill
T2C0.500
; #@! TA.AperFunction,Plated,PTH,ComponentDrill
T3C0.750
; #@! TA.AperFunction,Plated,PTH,ComponentDrill
T4C0.850
; #@! TA.AperFunction,Plated,PTH,ComponentDrill
T5C0.864
; #@! TA.AperFunction,Plated,PTH,ComponentDrill
T6C1.000
; #@! TA.AperFunction,Plated,PTH,ComponentDrill
T7C1.020
; #@! TA.AperFunction,Plated,PTH,ComponentDrill
T8C1.100
; #@! TA.AperFunction,Plated,PTH,ComponentDrill
T9C1.500
; #@! TA.AperFunction,Plated,PTH,ComponentDrill
T10C1.850
; #@! TA.AperFunction,Plated,PTH,ComponentDrill
T11C2.700
; #@! TA.AperFunction,Plated,PTH,ComponentDrill
T12C3.000
; #@! TA.AperFunction,Plated,PTH,ComponentDrill
T13C3.200
; #@! TA.AperFunction,Plated,PTH,ComponentDrill
T14C3.760
; #@! TA.AperFunction,Plated,PTH,ComponentDrill
T15C4.360
; #@! TA.AperFunction,Plated,PTH,ComponentDrill
T16C6.100
%
G90
G05
T1
X51.803Y-55.789
X52.65Y-55.79
X52.73Y-53.2
X52.74Y-48.64
X57.41Y-54.02
X57.439Y-52.041
X57.45Y-53.06
X80.03Y-133.93
X83.1Y-146.8
X83.11Y-134.51
X84.537Y-130.473
X84.62Y-129.26
X85.17Y-123.99
X85.52Y-66.87
X85.52Y-67.77
X85.52Y-68.67
X85.52Y-69.57
X85.52Y-70.47
X86.02Y-134.02
X86.94Y-66.85
X86.94Y-67.75
X86.94Y-68.65
X86.94Y-69.55
X86.94Y-70.45
X87.039Y-124.138
X88.64Y-122.57
X88.66Y-125.18
X88.85Y-120.84
X88.9Y-123.93
X90.238Y-120.745
X90.41Y-128.15
X90.7Y-84.41
X90.86Y-95.19
X91.37Y-128.19
X92.21Y-83.51
X92.89Y-69.22
X92.9Y-67.64
X93.29Y-82.98
X94.16Y-119.76
X94.32Y-86.21
X94.39Y-83.51
X94.47Y-107.46
X95.65Y-82.98
X95.74Y-86.21
X95.97Y-98.61
X96.87Y-83.51
X96.88Y-92.83
X96.95Y-99.59
X96.99Y-86.88
X97.94Y-107.24
X97.95Y-69.22
X97.98Y-67.65
X98.76Y-103.46
X98.77Y-105.27
X100.64Y-103.45
X100.65Y-95.97
X100.66Y-94.36
X100.66Y-101.57
X100.67Y-89.66
X100.67Y-105.3
X100.68Y-88.37
X102.33Y-86.25
X102.33Y-87.99
X102.33Y-89.89
X102.33Y-91.11
X102.33Y-93.01
X102.33Y-94.62
X102.33Y-96.52
X102.33Y-97.98
X102.33Y-99.88
X102.33Y-101.56
X102.33Y-103.46
X103.09Y-119.68
X103.09Y-120.77
X103.09Y-121.84
X103.09Y-123.05
X103.09Y-124.43
X103.09Y-125.8
X104.95Y-92.58
X104.95Y-96.56
X105.08Y-105.45
X108.28Y-81.9
X108.28Y-82.8
X108.28Y-83.7
X108.28Y-84.6
X108.28Y-85.5
X109.7Y-81.88
X109.7Y-82.78
X109.7Y-83.68
X109.7Y-84.58
X109.7Y-85.48
X111.55Y-133.21
X114.66Y-81.86
X114.66Y-82.76
X114.66Y-83.66
X114.66Y-84.56
X114.66Y-85.46
X115.77Y-87.95
X115.77Y-88.85
X115.77Y-89.75
X115.81Y-69.48
X115.86Y-67.56
X116.08Y-81.84
X116.08Y-82.74
X116.08Y-83.64
X116.08Y-84.54
X116.08Y-85.44
X116.98Y-95.73
X116.98Y-96.63
X116.98Y-97.53
X116.98Y-98.43
X116.98Y-99.33
X117.19Y-87.93
X117.19Y-88.83
X117.19Y-89.73
X118.2Y-152.36
X118.31Y-150.76
X118.4Y-95.71
X118.4Y-96.61
X118.4Y-97.51
X118.4Y-98.41
X118.4Y-99.31
X120.03Y-98.43
X120.03Y-99.33
X120.03Y-100.23
X120.03Y-101.13
X120.03Y-102.03
X120.84Y-69.48
X120.86Y-67.56
X121.45Y-98.41
X121.45Y-99.31
X121.45Y-100.21
X121.45Y-101.11
X121.45Y-102.01
X122.47Y-152.36
X127.06Y-152.36
X128.35Y-118.79
X128.35Y-119.69
X128.35Y-120.59
X128.35Y-121.49
X128.35Y-122.39
X128.35Y-123.29
X128.35Y-124.19
X128.35Y-125.09
X128.35Y-125.99
X128.35Y-126.89
X129.19Y-138.73
X129.32Y-104.97
X129.32Y-105.87
X129.32Y-106.77
X129.32Y-107.67
X129.32Y-108.57
X129.69Y-143.86
X129.77Y-118.77
X129.77Y-119.67
X129.77Y-120.57
X129.77Y-121.47
X129.77Y-122.37
X129.77Y-123.27
X129.77Y-124.17
X129.77Y-125.07
X129.77Y-125.97
X130.74Y-104.95
X130.74Y-105.85
X130.74Y-106.75
X130.74Y-107.65
X130.74Y-108.55
X130.75Y-61.27
X130.75Y-62.36
X130.75Y-63.43
X130.75Y-64.64
X130.75Y-66.02
X130.75Y-67.39
X131.13Y-138.72
X131.76Y-152.36
X132.64Y-143.86
X133.46Y-138.74
X133.82Y-131.15
X133.84Y-132.57
X134.14Y-70.13
X134.14Y-71.03
X134.14Y-71.93
X134.14Y-72.83
X134.14Y-73.73
X134.2Y-56.98
X134.2Y-57.88
X134.2Y-58.78
X134.2Y-59.68
X134.2Y-60.58
X134.71Y-129.87
X134.72Y-131.15
X134.74Y-132.57
X135.56Y-70.11
X135.56Y-71.01
X135.56Y-71.91
X135.56Y-72.81
X135.56Y-73.71
X135.61Y-129.87
X135.62Y-56.96
X135.62Y-57.86
X135.62Y-58.76
X135.62Y-59.66
X135.62Y-60.56
X135.62Y-131.15
X135.64Y-132.57
X135.73Y-143.86
X135.75Y-138.72
X135.87Y-105.71
X135.87Y-106.61
X135.87Y-107.51
X135.87Y-108.41
X135.87Y-109.31
X135.87Y-110.21
X135.87Y-111.11
X135.87Y-112.01
X136.19Y-65.14
X136.21Y-66.56
X136.47Y-152.35
X136.51Y-129.87
X136.52Y-131.15
X136.54Y-132.57
X137.09Y-65.14
X137.11Y-66.56
X137.29Y-105.69
X137.29Y-106.59
X137.29Y-107.49
X137.29Y-108.39
X137.29Y-109.29
X137.29Y-110.19
X137.29Y-111.09
X137.41Y-129.87
X137.42Y-131.15
X137.44Y-132.57
X137.99Y-65.14
X138.01Y-66.56
X138.31Y-129.87
X138.32Y-131.15
X138.34Y-132.57
X138.66Y-42.23
X138.89Y-65.14
X138.91Y-66.56
X139.21Y-129.87
X139.22Y-131.15
X139.24Y-132.57
X139.49Y-143.88
X139.79Y-65.14
X139.81Y-66.56
X140.11Y-129.87
X140.12Y-131.15
X140.14Y-132.57
X140.19Y-91.94
X141.01Y-129.87
X141.02Y-131.15
X141.04Y-132.57
X141.84Y-45.4
X141.9Y-152.35
X141.91Y-129.87
X141.92Y-131.15
X142.62Y-94.37
X142.71Y-65.12
X142.73Y-66.54
X143.07Y-143.86
X143.61Y-65.12
X143.63Y-66.54
X144.3Y-97.03
X144.3Y-100.06
X144.51Y-65.12
X144.53Y-66.54
X145.33Y-103.12
X145.41Y-65.12
X145.43Y-66.54
X145.7Y-143.71
X146.31Y-65.12
X146.33Y-66.54
X146.86Y-47.56
X146.87Y-152.35
X148.12Y-145.47
X148.62Y-106.41
X148.7Y-120.12
X148.7Y-121.02
X148.7Y-121.92
X148.7Y-122.82
X148.7Y-124.47
X148.7Y-125.37
X148.7Y-126.27
X148.7Y-127.17
X150.55Y-108.38
X150.66Y-110.69
X150.66Y-114.16
X150.66Y-120.05
X150.66Y-125.58
X150.66Y-130.42
X150.68Y-134.96
X150.92Y-142.67
X151.54Y-152.36
X152.28Y-117.43
X152.28Y-118.33
X152.28Y-119.23
X152.28Y-120.13
X152.28Y-121.03
X152.46Y-144.16
X152.51Y-136.88
X152.53Y-47.551
X153.13Y-140.49
X153.7Y-117.41
X153.7Y-118.31
X153.7Y-119.21
X153.7Y-120.11
X153.7Y-121.01
X153.72Y-147.75
X154.1Y-135.35
X154.45Y-142.18
X154.54Y-149.36
X155.51Y-146.08
X155.61Y-129.22
X155.63Y-133.8
X155.66Y-131.35
X155.75Y-122.31
X155.75Y-123.21
X155.75Y-124.11
X155.75Y-125.01
X155.75Y-125.91
X155.8Y-137.79
X156.68Y-50.5
X156.74Y-117.25
X156.76Y-118.67
X157.09Y-99.71
X157.17Y-122.29
X157.17Y-123.19
X157.17Y-124.09
X157.17Y-124.99
X157.17Y-125.89
X157.28Y-146.62
X157.6Y-128.32
X157.64Y-117.25
X157.66Y-118.67
X157.66Y-134.17
X158.45Y-138.19
X158.52Y-144.74
X158.54Y-117.25
X158.56Y-118.67
X159.44Y-117.25
X159.46Y-118.67
X159.52Y-129.14
X159.61Y-133.83
X159.64Y-131.34
X159.66Y-136.14
X159.82Y-96.94
X160.34Y-54.11
X160.34Y-117.25
X160.36Y-118.67
X161.97Y-94.48
X162.06Y-65.17
X162.1Y-71.46
X162.13Y-78.19
X162.14Y-83.87
X162.14Y-89.16
X162.15Y-59.08
T2
X46.575Y-38.633
X47.278Y-36.936
X47.278Y-40.33
X48.975Y-36.233
X48.975Y-41.033
X50.672Y-36.936
X50.672Y-40.33
X51.375Y-38.633
X87.575Y-150.633
X88.278Y-148.936
X88.278Y-152.33
X89.975Y-148.233
X89.975Y-153.033
X91.672Y-148.936
X91.672Y-152.33
X92.375Y-150.633
X149.575Y-38.633
X150.278Y-36.936
X150.278Y-40.33
X151.975Y-36.233
X151.975Y-41.033
X153.672Y-36.936
X153.672Y-40.33
X154.375Y-38.633
X158.575Y-150.633
X159.278Y-148.936
X159.278Y-152.33
X160.975Y-148.233
X160.975Y-153.033
X162.672Y-148.936
X162.672Y-152.33
X163.375Y-150.633
T3
X132.98Y-38.35
X134.98Y-38.35
X136.98Y-38.35
X138.98Y-38.35
T4
X71.32Y-141.51
X71.32Y-149.73
X73.82Y-141.51
X73.82Y-149.73
X76.32Y-141.51
X76.32Y-149.73
X78.82Y-141.51
X78.82Y-149.73
X97.25Y-137.26
X99.75Y-137.26
T5
X54.617Y-47.28
X62.217Y-47.28
T6
X76.23Y-36.78
X79.85Y-36.78
X83.45Y-36.78
X124.425Y-82.12
X124.425Y-84.66
X124.425Y-87.2
X124.425Y-89.74
X124.425Y-92.28
X124.425Y-94.82
X126.965Y-82.12
X126.965Y-84.66
X126.965Y-87.2
X126.965Y-89.74
X126.965Y-92.28
X126.965Y-94.82
X131.12Y-49.67
X131.12Y-53.47
T7
X101.8Y-68.418
X104.34Y-68.418
X106.88Y-68.418
X109.42Y-68.418
X111.96Y-68.418
T8
X92.31Y-86.98
X92.31Y-89.52
X92.31Y-92.06
X92.31Y-98.13
X92.31Y-100.67
X92.31Y-103.21
X92.32Y-75.95
X92.32Y-78.49
X92.32Y-81.03
X137.83Y-89.58
X137.83Y-99.78
X157.66Y-120.39
X157.66Y-130.59
T9
X74.93Y-41.14
X135.32Y-49.67
X139.46Y-49.67
X158.52Y-141.47
T10
X52.46Y-146.0
X60.71Y-146.0
X124.03Y-147.33
X132.28Y-147.33
X142.83Y-147.31
X151.08Y-147.31
T11
X69.25Y-44.93
X69.25Y-49.93
X79.02Y-44.93
X79.02Y-49.93
T12
X56.68Y-62.1
X56.68Y-71.6
X56.68Y-81.1
X56.68Y-90.6
X56.68Y-100.1
X56.68Y-109.6
X56.68Y-119.1
X56.68Y-128.6
X74.78Y-62.1
X74.78Y-71.6
X74.78Y-81.1
X74.78Y-90.6
X74.78Y-100.1
X74.78Y-109.6
X74.78Y-119.1
X74.78Y-128.6
T13
X48.975Y-38.633
X89.975Y-150.633
X151.975Y-38.633
X160.975Y-150.633
T14
X145.69Y-135.34
X149.8Y-84.83
T15
X142.26Y-116.59
X153.23Y-103.58
T16
X100.55Y-146.79
X111.55Y-146.79
X141.35Y-58.54
X141.35Y-73.2
X152.35Y-58.54
X152.35Y-73.2
T8
G00X104.75Y-117.37
M15
G01X110.25Y-117.37
M16
G05
G00X114.65Y-108.97
M15
G01X120.15Y-108.97
M16
G05
G00X117.4Y-120.12
M15
G01X117.4Y-114.62
M16
G05
G00X114.65Y-125.77
M15
G01X120.15Y-125.77
M16
G05
G00X125.4Y-120.12
M15
G01X125.4Y-114.62
M16
G05
M30
