%TF.GenerationSoftware,KiCad,Pcbnew,8.0.0*%
%TF.CreationDate,2025-05-02T16:13:48+09:00*%
%TF.ProjectId,Capstone_Power_Distribution_Board_V1.5,43617073-746f-46e6-955f-506f7765725f,rev?*%
%TF.SameCoordinates,Original*%
%TF.FileFunction,Soldermask,Bot*%
%TF.FilePolarity,Negative*%
%FSLAX46Y46*%
G04 Gerber Fmt 4.6, Leading zero omitted, Abs format (unit mm)*
G04 Created by KiCad (PCBNEW 8.0.0) date 2025-05-02 16:13:48*
%MOMM*%
%LPD*%
G01*
G04 APERTURE LIST*
G04 Aperture macros list*
%AMRoundRect*
0 Rectangle with rounded corners*
0 $1 Rounding radius*
0 $2 $3 $4 $5 $6 $7 $8 $9 X,Y pos of 4 corners*
0 Add a 4 corners polygon primitive as box body*
4,1,4,$2,$3,$4,$5,$6,$7,$8,$9,$2,$3,0*
0 Add four circle primitives for the rounded corners*
1,1,$1+$1,$2,$3*
1,1,$1+$1,$4,$5*
1,1,$1+$1,$6,$7*
1,1,$1+$1,$8,$9*
0 Add four rect primitives between the rounded corners*
20,1,$1+$1,$2,$3,$4,$5,0*
20,1,$1+$1,$4,$5,$6,$7,0*
20,1,$1+$1,$6,$7,$8,$9,0*
20,1,$1+$1,$8,$9,$2,$3,0*%
G04 Aperture macros list end*
%ADD10RoundRect,0.250000X0.350000X0.625000X-0.350000X0.625000X-0.350000X-0.625000X0.350000X-0.625000X0*%
%ADD11O,1.200000X1.750000*%
%ADD12C,2.775000*%
%ADD13R,3.800000X3.800000*%
%ADD14C,4.000000*%
%ADD15C,3.000000*%
%ADD16R,1.650000X1.650000*%
%ADD17C,1.650000*%
%ADD18C,6.540000*%
%ADD19C,5.640000*%
%ADD20C,0.800000*%
%ADD21C,6.400000*%
%ADD22C,2.000000*%
%ADD23C,5.000000*%
%ADD24R,9.150000X9.150000*%
%ADD25C,9.150000*%
%ADD26O,8.300000X2.300000*%
%ADD27O,2.300000X8.300000*%
%ADD28C,3.200000*%
%ADD29RoundRect,0.250000X-0.600000X-0.675000X0.600000X-0.675000X0.600000X0.675000X-0.600000X0.675000X0*%
%ADD30O,1.700000X1.850000*%
%ADD31R,1.700000X1.700000*%
%ADD32O,1.700000X1.700000*%
%ADD33R,1.371600X1.371600*%
%ADD34C,1.371600*%
%ADD35R,2.000000X2.000000*%
%ADD36RoundRect,0.250000X-0.337500X-0.475000X0.337500X-0.475000X0.337500X0.475000X-0.337500X0.475000X0*%
%ADD37RoundRect,0.150000X-0.825000X-0.150000X0.825000X-0.150000X0.825000X0.150000X-0.825000X0.150000X0*%
%ADD38RoundRect,0.237500X0.250000X0.237500X-0.250000X0.237500X-0.250000X-0.237500X0.250000X-0.237500X0*%
%ADD39O,3.500000X3.500000*%
%ADD40R,2.000000X1.905000*%
%ADD41O,2.000000X1.905000*%
%ADD42RoundRect,0.250000X-0.475000X0.337500X-0.475000X-0.337500X0.475000X-0.337500X0.475000X0.337500X0*%
%ADD43RoundRect,0.237500X-0.250000X-0.237500X0.250000X-0.237500X0.250000X0.237500X-0.250000X0.237500X0*%
%ADD44RoundRect,0.237500X0.237500X-0.250000X0.237500X0.250000X-0.237500X0.250000X-0.237500X-0.250000X0*%
%ADD45RoundRect,0.250000X0.337500X0.475000X-0.337500X0.475000X-0.337500X-0.475000X0.337500X-0.475000X0*%
%ADD46RoundRect,0.237500X0.300000X0.237500X-0.300000X0.237500X-0.300000X-0.237500X0.300000X-0.237500X0*%
%ADD47RoundRect,0.237500X0.237500X-0.300000X0.237500X0.300000X-0.237500X0.300000X-0.237500X-0.300000X0*%
%ADD48RoundRect,0.250000X0.475000X-0.337500X0.475000X0.337500X-0.475000X0.337500X-0.475000X-0.337500X0*%
%ADD49RoundRect,0.200000X-0.250000X0.200000X-0.250000X-0.200000X0.250000X-0.200000X0.250000X0.200000X0*%
G04 APERTURE END LIST*
D10*
%TO.C,J22*%
X138980000Y-38350000D03*
D11*
X136980000Y-38350000D03*
X134980000Y-38350000D03*
X132980000Y-38350000D03*
%TD*%
D12*
%TO.C,J7*%
X52460000Y-146000000D03*
X60710000Y-146000000D03*
%TD*%
D13*
%TO.C,J20*%
X69250000Y-44930000D03*
D14*
X69250000Y-49930000D03*
%TD*%
D15*
%TO.C,TP10*%
X135320000Y-49670000D03*
%TD*%
D16*
%TO.C,K1*%
X157660000Y-130590000D03*
D17*
X157660000Y-120390000D03*
D18*
X142260000Y-116590000D03*
D19*
X145690000Y-135340000D03*
%TD*%
D20*
%TO.C,H3*%
X87575216Y-150632652D03*
X88278160Y-148935596D03*
X88278160Y-152329708D03*
X89975216Y-148232652D03*
D21*
X89975216Y-150632652D03*
D20*
X89975216Y-153032652D03*
X91672272Y-148935596D03*
X91672272Y-152329708D03*
X92375216Y-150632652D03*
%TD*%
%TO.C,H2*%
X149575216Y-38632652D03*
X150278160Y-36935596D03*
X150278160Y-40329708D03*
X151975216Y-36232652D03*
D21*
X151975216Y-38632652D03*
D20*
X151975216Y-41032652D03*
X153672272Y-36935596D03*
X153672272Y-40329708D03*
X154375216Y-38632652D03*
%TD*%
D22*
%TO.C,TP4*%
X131120000Y-49670000D03*
%TD*%
D23*
%TO.C,J24*%
X74780000Y-62100000D03*
X74780000Y-71600000D03*
X74780000Y-81100000D03*
X74780000Y-90600000D03*
X74780000Y-100100000D03*
X74780000Y-109600000D03*
X74780000Y-119100000D03*
X74780000Y-128600000D03*
%TD*%
D12*
%TO.C,J3*%
X142830000Y-147310000D03*
X151080000Y-147310000D03*
%TD*%
D15*
%TO.C,TP9*%
X158520000Y-141470000D03*
%TD*%
D22*
%TO.C,TP2*%
X131120000Y-53470000D03*
%TD*%
%TO.C,TP3*%
X79850000Y-36780000D03*
%TD*%
%TO.C,TP1*%
X76230000Y-36780000D03*
%TD*%
D12*
%TO.C,J19*%
X124030000Y-147330000D03*
X132280000Y-147330000D03*
%TD*%
D24*
%TO.C,J8*%
X152350000Y-58540000D03*
D25*
X141350000Y-58540000D03*
%TD*%
D20*
%TO.C,H1*%
X46575264Y-38632668D03*
X47278208Y-36935612D03*
X47278208Y-40329724D03*
X48975264Y-36232668D03*
D21*
X48975264Y-38632668D03*
D20*
X48975264Y-41032668D03*
X50672320Y-36935612D03*
X50672320Y-40329724D03*
X51375264Y-38632668D03*
%TD*%
D13*
%TO.C,J15*%
X79020000Y-44930000D03*
D14*
X79020000Y-49930000D03*
%TD*%
D26*
%TO.C,U1*%
X117400000Y-108970000D03*
X117400000Y-125770000D03*
X107500000Y-117370000D03*
D27*
X117400000Y-117370000D03*
X125400000Y-117370000D03*
%TD*%
D15*
%TO.C,TP12*%
X74930000Y-41140000D03*
%TD*%
D22*
%TO.C,TP5*%
X83450000Y-36780000D03*
%TD*%
D28*
%TO.C,H5*%
X160975184Y-47632748D03*
%TD*%
D29*
%TO.C,J4*%
X71320000Y-141510000D03*
D30*
X73820000Y-141510000D03*
X76320000Y-141510000D03*
X78820000Y-141510000D03*
%TD*%
D31*
%TO.C,J2*%
X124425000Y-82120000D03*
D32*
X126965000Y-82120000D03*
X124425000Y-84660000D03*
X126965000Y-84660000D03*
X124425000Y-87200000D03*
X126965000Y-87200000D03*
X124425000Y-89740000D03*
X126965000Y-89740000D03*
X124425000Y-92280000D03*
X126965000Y-92280000D03*
X124425000Y-94820000D03*
X126965000Y-94820000D03*
%TD*%
D29*
%TO.C,J18*%
X97250000Y-137260000D03*
D30*
X99750000Y-137260000D03*
%TD*%
D23*
%TO.C,J25*%
X56680000Y-62100000D03*
X56680000Y-71600000D03*
X56680000Y-81100000D03*
X56680000Y-90600000D03*
X56680000Y-100100000D03*
X56680000Y-109600000D03*
X56680000Y-119100000D03*
X56680000Y-128600000D03*
%TD*%
D20*
%TO.C,H4*%
X158574716Y-150632952D03*
X159277660Y-148935896D03*
X159277660Y-152330008D03*
X160974716Y-148232952D03*
D21*
X160974716Y-150632952D03*
D20*
X160974716Y-153032952D03*
X162671772Y-148935896D03*
X162671772Y-152330008D03*
X163374716Y-150632952D03*
%TD*%
D33*
%TO.C,BZ1*%
X54616750Y-47280000D03*
D34*
X62216750Y-47280000D03*
%TD*%
D22*
%TO.C,J23*%
X101800000Y-68417500D03*
X104340000Y-68417500D03*
D35*
X106880000Y-68417500D03*
X109420000Y-68417500D03*
D22*
X111960000Y-68417500D03*
%TD*%
D29*
%TO.C,J5*%
X71320000Y-149730000D03*
D30*
X73820000Y-149730000D03*
X76320000Y-149730000D03*
X78820000Y-149730000D03*
%TD*%
D24*
%TO.C,J6*%
X152350000Y-73200000D03*
D25*
X141350000Y-73200000D03*
%TD*%
D15*
%TO.C,TP21*%
X139460000Y-49670000D03*
%TD*%
D24*
%TO.C,J13*%
X100550000Y-146790000D03*
D25*
X111550000Y-146790000D03*
%TD*%
D16*
%TO.C,K3*%
X137830000Y-89580000D03*
D17*
X137830000Y-99780000D03*
D18*
X153230000Y-103580000D03*
D19*
X149800000Y-84830000D03*
%TD*%
D36*
%TO.C,C12*%
X141370000Y-126740000D03*
X143445000Y-126740000D03*
%TD*%
D37*
%TO.C,U3*%
X50895000Y-55240000D03*
X50895000Y-53970000D03*
X50895000Y-52700000D03*
X50895000Y-51430000D03*
X55845000Y-51430000D03*
X55845000Y-52700000D03*
X55845000Y-53970000D03*
X55845000Y-55240000D03*
%TD*%
D38*
%TO.C,R5*%
X90022500Y-82990000D03*
X88197500Y-82990000D03*
%TD*%
D39*
%TO.C,Q3*%
X108970000Y-100670000D03*
D40*
X92310000Y-103210000D03*
D41*
X92310000Y-100670000D03*
X92310000Y-98130000D03*
%TD*%
D38*
%TO.C,R9*%
X143232500Y-124490000D03*
X141407500Y-124490000D03*
%TD*%
D42*
%TO.C,RV2*%
X151310000Y-91462500D03*
X151310000Y-93537500D03*
%TD*%
D43*
%TO.C,R16*%
X153397500Y-93552500D03*
X155222500Y-93552500D03*
%TD*%
D44*
%TO.C,R15*%
X46830000Y-55752500D03*
X46830000Y-53927500D03*
%TD*%
D38*
%TO.C,R7*%
X90182500Y-94010000D03*
X88357500Y-94010000D03*
%TD*%
D45*
%TO.C,C14*%
X155427500Y-91450000D03*
X153352500Y-91450000D03*
%TD*%
D44*
%TO.C,R17*%
X46830000Y-51632500D03*
X46830000Y-49807500D03*
%TD*%
D46*
%TO.C,C8*%
X56062500Y-49250000D03*
X54337500Y-49250000D03*
%TD*%
D47*
%TO.C,C7*%
X48570000Y-51582500D03*
X48570000Y-49857500D03*
%TD*%
D39*
%TO.C,Q1*%
X108980000Y-78490000D03*
D40*
X92320000Y-81030000D03*
D41*
X92320000Y-78490000D03*
X92320000Y-75950000D03*
%TD*%
D38*
%TO.C,R10*%
X90022500Y-105240000D03*
X88197500Y-105240000D03*
%TD*%
D46*
%TO.C,C6*%
X56282500Y-56870000D03*
X54557500Y-56870000D03*
%TD*%
D43*
%TO.C,R19*%
X59997500Y-42590000D03*
X61822500Y-42590000D03*
%TD*%
D48*
%TO.C,RV1*%
X145410000Y-126747500D03*
X145410000Y-124672500D03*
%TD*%
D38*
%TO.C,R18*%
X52242500Y-56870000D03*
X50417500Y-56870000D03*
%TD*%
D49*
%TO.C,Q5*%
X59780000Y-45950000D03*
X59780000Y-44050000D03*
X61780000Y-45000000D03*
%TD*%
D39*
%TO.C,Q2*%
X108970000Y-89520000D03*
D40*
X92310000Y-92060000D03*
D41*
X92310000Y-89520000D03*
X92310000Y-86980000D03*
%TD*%
M02*
