%TF.GenerationSoftware,KiCad,Pcbnew,8.0.0*%
%TF.CreationDate,2025-05-02T16:13:48+09:00*%
%TF.ProjectId,Capstone_Power_Distribution_Board_V1.5,43617073-746f-46e6-955f-506f7765725f,rev?*%
%TF.SameCoordinates,Original*%
%TF.FileFunction,Soldermask,Top*%
%TF.FilePolarity,Negative*%
%FSLAX46Y46*%
G04 Gerber Fmt 4.6, Leading zero omitted, Abs format (unit mm)*
G04 Created by KiCad (PCBNEW 8.0.0) date 2025-05-02 16:13:48*
%MOMM*%
%LPD*%
G01*
G04 APERTURE LIST*
G04 Aperture macros list*
%AMRoundRect*
0 Rectangle with rounded corners*
0 $1 Rounding radius*
0 $2 $3 $4 $5 $6 $7 $8 $9 X,Y pos of 4 corners*
0 Add a 4 corners polygon primitive as box body*
4,1,4,$2,$3,$4,$5,$6,$7,$8,$9,$2,$3,0*
0 Add four circle primitives for the rounded corners*
1,1,$1+$1,$2,$3*
1,1,$1+$1,$4,$5*
1,1,$1+$1,$6,$7*
1,1,$1+$1,$8,$9*
0 Add four rect primitives between the rounded corners*
20,1,$1+$1,$2,$3,$4,$5,0*
20,1,$1+$1,$4,$5,$6,$7,0*
20,1,$1+$1,$6,$7,$8,$9,0*
20,1,$1+$1,$8,$9,$2,$3,0*%
G04 Aperture macros list end*
%ADD10C,0.100000*%
%ADD11RoundRect,0.250000X0.350000X0.625000X-0.350000X0.625000X-0.350000X-0.625000X0.350000X-0.625000X0*%
%ADD12O,1.200000X1.750000*%
%ADD13RoundRect,0.250000X-1.500000X-0.650000X1.500000X-0.650000X1.500000X0.650000X-1.500000X0.650000X0*%
%ADD14RoundRect,0.237500X-0.237500X0.250000X-0.237500X-0.250000X0.237500X-0.250000X0.237500X0.250000X0*%
%ADD15RoundRect,0.237500X0.237500X-0.300000X0.237500X0.300000X-0.237500X0.300000X-0.237500X-0.300000X0*%
%ADD16C,2.775000*%
%ADD17R,3.800000X3.800000*%
%ADD18C,4.000000*%
%ADD19C,3.000000*%
%ADD20R,1.650000X1.650000*%
%ADD21C,1.650000*%
%ADD22C,6.540000*%
%ADD23C,5.640000*%
%ADD24C,0.800000*%
%ADD25C,6.400000*%
%ADD26RoundRect,0.237500X-0.287500X-0.237500X0.287500X-0.237500X0.287500X0.237500X-0.287500X0.237500X0*%
%ADD27RoundRect,0.237500X0.300000X0.237500X-0.300000X0.237500X-0.300000X-0.237500X0.300000X-0.237500X0*%
%ADD28RoundRect,0.237500X-0.250000X-0.237500X0.250000X-0.237500X0.250000X0.237500X-0.250000X0.237500X0*%
%ADD29RoundRect,0.250000X0.900000X-1.500000X0.900000X1.500000X-0.900000X1.500000X-0.900000X-1.500000X0*%
%ADD30C,2.000000*%
%ADD31C,5.000000*%
%ADD32R,9.150000X9.150000*%
%ADD33C,9.150000*%
%ADD34R,5.500000X2.150000*%
%ADD35O,8.300000X2.300000*%
%ADD36O,2.300000X8.300000*%
%ADD37C,3.200000*%
%ADD38RoundRect,0.250000X-0.600000X-0.675000X0.600000X-0.675000X0.600000X0.675000X-0.600000X0.675000X0*%
%ADD39O,1.700000X1.850000*%
%ADD40R,1.700000X1.700000*%
%ADD41O,1.700000X1.700000*%
%ADD42R,1.371600X1.371600*%
%ADD43C,1.371600*%
%ADD44RoundRect,1.000000X-1.000000X-2.250000X1.000000X-2.250000X1.000000X2.250000X-1.000000X2.250000X0*%
%ADD45R,2.000000X2.000000*%
%ADD46RoundRect,0.237500X0.237500X-0.287500X0.237500X0.287500X-0.237500X0.287500X-0.237500X-0.287500X0*%
%ADD47RoundRect,0.250000X1.050000X0.550000X-1.050000X0.550000X-1.050000X-0.550000X1.050000X-0.550000X0*%
%ADD48RoundRect,0.150000X-0.150000X0.820000X-0.150000X-0.820000X0.150000X-0.820000X0.150000X0.820000X0*%
%ADD49R,3.510000X2.620000*%
%ADD50RoundRect,0.237500X0.237500X-0.250000X0.237500X0.250000X-0.237500X0.250000X-0.237500X-0.250000X0*%
%ADD51RoundRect,0.250000X1.950000X1.000000X-1.950000X1.000000X-1.950000X-1.000000X1.950000X-1.000000X0*%
%ADD52RoundRect,0.237500X-0.237500X0.300000X-0.237500X-0.300000X0.237500X-0.300000X0.237500X0.300000X0*%
%ADD53O,3.500000X3.500000*%
%ADD54R,2.000000X1.905000*%
%ADD55O,2.000000X1.905000*%
G04 APERTURE END LIST*
D10*
X154070000Y-45580000D02*
X154980000Y-45950000D01*
X163520000Y-54460000D01*
X164110000Y-55780000D01*
X164110000Y-94760000D01*
X163590000Y-96050000D01*
X163200000Y-96430000D01*
X157680000Y-101970000D01*
X154690000Y-99300000D01*
X160050000Y-93930000D01*
X160110000Y-93740000D01*
X160250000Y-56600000D01*
X153100000Y-49450000D01*
X147850000Y-49560000D01*
X147850000Y-45570000D01*
X154070000Y-45580000D01*
G36*
X154070000Y-45580000D02*
G01*
X154980000Y-45950000D01*
X163520000Y-54460000D01*
X164110000Y-55780000D01*
X164110000Y-94760000D01*
X163590000Y-96050000D01*
X163200000Y-96430000D01*
X157680000Y-101970000D01*
X154690000Y-99300000D01*
X160050000Y-93930000D01*
X160110000Y-93740000D01*
X160250000Y-56600000D01*
X153100000Y-49450000D01*
X147850000Y-49560000D01*
X147850000Y-45570000D01*
X154070000Y-45580000D01*
G37*
X128270000Y-111600000D02*
X129010000Y-112510000D01*
X129390000Y-113450000D01*
X129460000Y-116770000D01*
X127310000Y-116780000D01*
X127310000Y-111190000D01*
X128270000Y-111600000D01*
G36*
X128270000Y-111600000D02*
G01*
X129010000Y-112510000D01*
X129390000Y-113450000D01*
X129460000Y-116770000D01*
X127310000Y-116780000D01*
X127310000Y-111190000D01*
X128270000Y-111600000D01*
G37*
X141470000Y-128790000D02*
X141510000Y-140100000D01*
X139800000Y-139790000D01*
X137760000Y-138400000D01*
X125350000Y-125870000D01*
X125380000Y-123130000D01*
X130640000Y-117980000D01*
X141470000Y-128790000D01*
G36*
X141470000Y-128790000D02*
G01*
X141510000Y-140100000D01*
X139800000Y-139790000D01*
X137760000Y-138400000D01*
X125350000Y-125870000D01*
X125380000Y-123130000D01*
X130640000Y-117980000D01*
X141470000Y-128790000D01*
G37*
X127300000Y-121320000D02*
X127300000Y-121310000D01*
X127300022Y-121309977D01*
X127300000Y-121320000D01*
G36*
X127300000Y-121320000D02*
G01*
X127300000Y-121310000D01*
X127300022Y-121309977D01*
X127300000Y-121320000D01*
G37*
X130640000Y-117980000D02*
X127300022Y-121309977D01*
X127310000Y-116780000D01*
X129460000Y-116770000D01*
X130640000Y-117980000D01*
G36*
X130640000Y-117980000D02*
G01*
X127300022Y-121309977D01*
X127310000Y-116780000D01*
X129460000Y-116770000D01*
X130640000Y-117980000D01*
G37*
D11*
%TO.C,J22*%
X138980000Y-38350000D03*
D12*
X136980000Y-38350000D03*
X134980000Y-38350000D03*
X132980000Y-38350000D03*
%TD*%
D13*
%TO.C,D2*%
X110532500Y-138430000D03*
X115532500Y-138430000D03*
%TD*%
D14*
%TO.C,R1*%
X87850000Y-121595000D03*
X87850000Y-123420000D03*
%TD*%
D15*
%TO.C,C3*%
X86270000Y-123372500D03*
X86270000Y-121647500D03*
%TD*%
D16*
%TO.C,J7*%
X52460000Y-146000000D03*
X60710000Y-146000000D03*
%TD*%
D17*
%TO.C,J20*%
X69250000Y-44930000D03*
D18*
X69250000Y-49930000D03*
%TD*%
D19*
%TO.C,TP10*%
X135320000Y-49670000D03*
%TD*%
D20*
%TO.C,K1*%
X157660000Y-130590000D03*
D21*
X157660000Y-120390000D03*
D22*
X142260000Y-116590000D03*
D23*
X145690000Y-135340000D03*
%TD*%
D24*
%TO.C,H3*%
X87575216Y-150632652D03*
X88278160Y-148935596D03*
X88278160Y-152329708D03*
X89975216Y-148232652D03*
D25*
X89975216Y-150632652D03*
D24*
X89975216Y-153032652D03*
X91672272Y-148935596D03*
X91672272Y-152329708D03*
X92375216Y-150632652D03*
%TD*%
D26*
%TO.C,D3*%
X98327500Y-92835000D03*
X100077500Y-92835000D03*
%TD*%
D27*
%TO.C,C5*%
X87862500Y-130950000D03*
X86137500Y-130950000D03*
%TD*%
D28*
%TO.C,R8*%
X98267500Y-91210000D03*
X100092500Y-91210000D03*
%TD*%
D29*
%TO.C,D7*%
X145580000Y-47190000D03*
X145580000Y-41790000D03*
%TD*%
D24*
%TO.C,H2*%
X149575216Y-38632652D03*
X150278160Y-36935596D03*
X150278160Y-40329708D03*
X151975216Y-36232652D03*
D25*
X151975216Y-38632652D03*
D24*
X151975216Y-41032652D03*
X153672272Y-36935596D03*
X153672272Y-40329708D03*
X154375216Y-38632652D03*
%TD*%
D30*
%TO.C,TP4*%
X131120000Y-49670000D03*
%TD*%
D28*
%TO.C,R11*%
X98267500Y-97440000D03*
X100092500Y-97440000D03*
%TD*%
D14*
%TO.C,R20*%
X84630000Y-151427500D03*
X84630000Y-153252500D03*
%TD*%
D31*
%TO.C,J24*%
X74780000Y-62100000D03*
X74780000Y-71600000D03*
X74780000Y-81100000D03*
X74780000Y-90600000D03*
X74780000Y-100100000D03*
X74780000Y-109600000D03*
X74780000Y-119100000D03*
X74780000Y-128600000D03*
%TD*%
D16*
%TO.C,J3*%
X142830000Y-147310000D03*
X151080000Y-147310000D03*
%TD*%
D19*
%TO.C,TP9*%
X158520000Y-141470000D03*
%TD*%
D30*
%TO.C,TP2*%
X131120000Y-53470000D03*
%TD*%
%TO.C,TP3*%
X79850000Y-36780000D03*
%TD*%
%TO.C,TP1*%
X76230000Y-36780000D03*
%TD*%
D16*
%TO.C,J19*%
X124030000Y-147330000D03*
X132280000Y-147330000D03*
%TD*%
D32*
%TO.C,J8*%
X152350000Y-58540000D03*
D33*
X141350000Y-58540000D03*
%TD*%
D26*
%TO.C,D4*%
X98327500Y-99122500D03*
X100077500Y-99122500D03*
%TD*%
D34*
%TO.C,L1*%
X97250000Y-122710000D03*
X97250000Y-126560000D03*
%TD*%
D27*
%TO.C,C4*%
X87862500Y-129330000D03*
X86137500Y-129330000D03*
%TD*%
D14*
%TO.C,R4*%
X84720000Y-121597500D03*
X84720000Y-123422500D03*
%TD*%
D24*
%TO.C,H1*%
X46575264Y-38632668D03*
X47278208Y-36935612D03*
X47278208Y-40329724D03*
X48975264Y-36232668D03*
D25*
X48975264Y-38632668D03*
D24*
X48975264Y-41032668D03*
X50672320Y-36935612D03*
X50672320Y-40329724D03*
X51375264Y-38632668D03*
%TD*%
D17*
%TO.C,J15*%
X79020000Y-44930000D03*
D18*
X79020000Y-49930000D03*
%TD*%
D35*
%TO.C,U1*%
X117400000Y-108970000D03*
X117400000Y-125770000D03*
X107500000Y-117370000D03*
D36*
X117400000Y-117370000D03*
X125400000Y-117370000D03*
%TD*%
D14*
%TO.C,R3*%
X87850000Y-124990000D03*
X87850000Y-126815000D03*
%TD*%
D19*
%TO.C,TP12*%
X74930000Y-41140000D03*
%TD*%
D30*
%TO.C,TP5*%
X83450000Y-36780000D03*
%TD*%
D37*
%TO.C,H5*%
X160975184Y-47632748D03*
%TD*%
D38*
%TO.C,J4*%
X71320000Y-141510000D03*
D39*
X73820000Y-141510000D03*
X76320000Y-141510000D03*
X78820000Y-141510000D03*
%TD*%
D40*
%TO.C,J2*%
X124425000Y-82120000D03*
D41*
X126965000Y-82120000D03*
X124425000Y-84660000D03*
X126965000Y-84660000D03*
X124425000Y-87200000D03*
X126965000Y-87200000D03*
X124425000Y-89740000D03*
X126965000Y-89740000D03*
X124425000Y-92280000D03*
X126965000Y-92280000D03*
X124425000Y-94820000D03*
X126965000Y-94820000D03*
%TD*%
D38*
%TO.C,J18*%
X97250000Y-137260000D03*
D39*
X99750000Y-137260000D03*
%TD*%
D31*
%TO.C,J25*%
X56680000Y-62100000D03*
X56680000Y-71600000D03*
X56680000Y-81100000D03*
X56680000Y-90600000D03*
X56680000Y-100100000D03*
X56680000Y-109600000D03*
X56680000Y-119100000D03*
X56680000Y-128600000D03*
%TD*%
D24*
%TO.C,H4*%
X158574716Y-150632952D03*
X159277660Y-148935896D03*
X159277660Y-152330008D03*
X160974716Y-148232952D03*
D25*
X160974716Y-150632952D03*
D24*
X160974716Y-153032952D03*
X162671772Y-148935896D03*
X162671772Y-152330008D03*
X163374716Y-150632952D03*
%TD*%
D28*
%TO.C,R6*%
X98267500Y-85250000D03*
X100092500Y-85250000D03*
%TD*%
D26*
%TO.C,D1*%
X98327500Y-86900000D03*
X100077500Y-86900000D03*
%TD*%
D42*
%TO.C,BZ1*%
X54616750Y-47280000D03*
D43*
X62216750Y-47280000D03*
%TD*%
D44*
%TO.C,J23*%
X92910000Y-68417500D03*
X97910000Y-68417500D03*
D30*
X101800000Y-68417500D03*
X104340000Y-68417500D03*
D45*
X106880000Y-68417500D03*
X109420000Y-68417500D03*
D30*
X111960000Y-68417500D03*
D44*
X115850000Y-68417500D03*
X120850000Y-68417500D03*
%TD*%
D46*
%TO.C,D9*%
X82980000Y-153170000D03*
X82980000Y-151420000D03*
%TD*%
D47*
%TO.C,C2*%
X89220000Y-118040000D03*
X85620000Y-118040000D03*
%TD*%
D13*
%TO.C,D8*%
X121132500Y-137330000D03*
X126132500Y-137330000D03*
%TD*%
D38*
%TO.C,J5*%
X71320000Y-149730000D03*
D39*
X73820000Y-149730000D03*
X76320000Y-149730000D03*
X78820000Y-149730000D03*
%TD*%
D48*
%TO.C,U2*%
X93260000Y-121690000D03*
X91990000Y-121690000D03*
X90720000Y-121690000D03*
X89450000Y-121690000D03*
X89450000Y-126650000D03*
X90720000Y-126650000D03*
X91990000Y-126650000D03*
X93260000Y-126650000D03*
D49*
X91355000Y-124170000D03*
%TD*%
D50*
%TO.C,R2*%
X86280000Y-126815000D03*
X86280000Y-124990000D03*
%TD*%
D32*
%TO.C,J6*%
X152350000Y-73200000D03*
D33*
X141350000Y-73200000D03*
%TD*%
D19*
%TO.C,TP21*%
X139460000Y-49670000D03*
%TD*%
D32*
%TO.C,J13*%
X100550000Y-146790000D03*
D33*
X111550000Y-146790000D03*
%TD*%
D51*
%TO.C,C9*%
X96950000Y-110040000D03*
X88550000Y-110040000D03*
%TD*%
D52*
%TO.C,C1*%
X94990000Y-118747500D03*
X94990000Y-120472500D03*
%TD*%
D20*
%TO.C,K3*%
X137830000Y-89580000D03*
D21*
X137830000Y-99780000D03*
D22*
X153230000Y-103580000D03*
D23*
X149800000Y-84830000D03*
%TD*%
D53*
%TO.C,Q3*%
X108970000Y-100670000D03*
D54*
X92310000Y-103210000D03*
D55*
X92310000Y-100670000D03*
X92310000Y-98130000D03*
%TD*%
D53*
%TO.C,Q1*%
X108980000Y-78490000D03*
D54*
X92320000Y-81030000D03*
D55*
X92320000Y-78490000D03*
X92320000Y-75950000D03*
%TD*%
D53*
%TO.C,Q2*%
X108970000Y-89520000D03*
D54*
X92310000Y-92060000D03*
D55*
X92310000Y-89520000D03*
X92310000Y-86980000D03*
%TD*%
M02*
