%TF.GenerationSoftware,KiCad,Pcbnew,8.0.0*%
%TF.CreationDate,2025-05-02T16:13:48+09:00*%
%TF.ProjectId,Capstone_Power_Distribution_Board_V1.5,43617073-746f-46e6-955f-506f7765725f,rev?*%
%TF.SameCoordinates,Original*%
%TF.FileFunction,Paste,Top*%
%TF.FilePolarity,Positive*%
%FSLAX46Y46*%
G04 Gerber Fmt 4.6, Leading zero omitted, Abs format (unit mm)*
G04 Created by KiCad (PCBNEW 8.0.0) date 2025-05-02 16:13:48*
%MOMM*%
%LPD*%
G01*
G04 APERTURE LIST*
G04 Aperture macros list*
%AMRoundRect*
0 Rectangle with rounded corners*
0 $1 Rounding radius*
0 $2 $3 $4 $5 $6 $7 $8 $9 X,Y pos of 4 corners*
0 Add a 4 corners polygon primitive as box body*
4,1,4,$2,$3,$4,$5,$6,$7,$8,$9,$2,$3,0*
0 Add four circle primitives for the rounded corners*
1,1,$1+$1,$2,$3*
1,1,$1+$1,$4,$5*
1,1,$1+$1,$6,$7*
1,1,$1+$1,$8,$9*
0 Add four rect primitives between the rounded corners*
20,1,$1+$1,$2,$3,$4,$5,0*
20,1,$1+$1,$4,$5,$6,$7,0*
20,1,$1+$1,$6,$7,$8,$9,0*
20,1,$1+$1,$8,$9,$2,$3,0*%
G04 Aperture macros list end*
%ADD10RoundRect,0.250000X-1.500000X-0.650000X1.500000X-0.650000X1.500000X0.650000X-1.500000X0.650000X0*%
%ADD11RoundRect,0.237500X-0.237500X0.250000X-0.237500X-0.250000X0.237500X-0.250000X0.237500X0.250000X0*%
%ADD12RoundRect,0.237500X0.237500X-0.300000X0.237500X0.300000X-0.237500X0.300000X-0.237500X-0.300000X0*%
%ADD13RoundRect,0.237500X-0.287500X-0.237500X0.287500X-0.237500X0.287500X0.237500X-0.287500X0.237500X0*%
%ADD14RoundRect,0.237500X0.300000X0.237500X-0.300000X0.237500X-0.300000X-0.237500X0.300000X-0.237500X0*%
%ADD15RoundRect,0.237500X-0.250000X-0.237500X0.250000X-0.237500X0.250000X0.237500X-0.250000X0.237500X0*%
%ADD16RoundRect,0.250000X0.900000X-1.500000X0.900000X1.500000X-0.900000X1.500000X-0.900000X-1.500000X0*%
%ADD17R,5.500000X2.150000*%
%ADD18RoundRect,1.000000X-1.000000X-2.250000X1.000000X-2.250000X1.000000X2.250000X-1.000000X2.250000X0*%
%ADD19RoundRect,0.237500X0.237500X-0.287500X0.237500X0.287500X-0.237500X0.287500X-0.237500X-0.287500X0*%
%ADD20RoundRect,0.250000X1.050000X0.550000X-1.050000X0.550000X-1.050000X-0.550000X1.050000X-0.550000X0*%
%ADD21RoundRect,0.250000X-0.455000X0.280000X-0.455000X-0.280000X0.455000X-0.280000X0.455000X0.280000X0*%
%ADD22RoundRect,0.150000X-0.150000X0.820000X-0.150000X-0.820000X0.150000X-0.820000X0.150000X0.820000X0*%
%ADD23RoundRect,0.237500X0.237500X-0.250000X0.237500X0.250000X-0.237500X0.250000X-0.237500X-0.250000X0*%
%ADD24RoundRect,0.250000X1.950000X1.000000X-1.950000X1.000000X-1.950000X-1.000000X1.950000X-1.000000X0*%
%ADD25RoundRect,0.237500X-0.237500X0.300000X-0.237500X-0.300000X0.237500X-0.300000X0.237500X0.300000X0*%
G04 APERTURE END LIST*
D10*
%TO.C,D2*%
X110532500Y-138430000D03*
X115532500Y-138430000D03*
%TD*%
D11*
%TO.C,R1*%
X87850000Y-121595000D03*
X87850000Y-123420000D03*
%TD*%
D12*
%TO.C,C3*%
X86270000Y-123372500D03*
X86270000Y-121647500D03*
%TD*%
D13*
%TO.C,D3*%
X98327500Y-92835000D03*
X100077500Y-92835000D03*
%TD*%
D14*
%TO.C,C5*%
X87862500Y-130950000D03*
X86137500Y-130950000D03*
%TD*%
D15*
%TO.C,R8*%
X98267500Y-91210000D03*
X100092500Y-91210000D03*
%TD*%
D16*
%TO.C,D7*%
X145580000Y-47190000D03*
X145580000Y-41790000D03*
%TD*%
D15*
%TO.C,R11*%
X98267500Y-97440000D03*
X100092500Y-97440000D03*
%TD*%
D11*
%TO.C,R20*%
X84630000Y-151427500D03*
X84630000Y-153252500D03*
%TD*%
D13*
%TO.C,D4*%
X98327500Y-99122500D03*
X100077500Y-99122500D03*
%TD*%
D17*
%TO.C,L1*%
X97250000Y-122710000D03*
X97250000Y-126560000D03*
%TD*%
D14*
%TO.C,C4*%
X87862500Y-129330000D03*
X86137500Y-129330000D03*
%TD*%
D11*
%TO.C,R4*%
X84720000Y-121597500D03*
X84720000Y-123422500D03*
%TD*%
%TO.C,R3*%
X87850000Y-124990000D03*
X87850000Y-126815000D03*
%TD*%
D15*
%TO.C,R6*%
X98267500Y-85250000D03*
X100092500Y-85250000D03*
%TD*%
D13*
%TO.C,D1*%
X98327500Y-86900000D03*
X100077500Y-86900000D03*
%TD*%
D18*
%TO.C,J23*%
X92910000Y-68417500D03*
X97910000Y-68417500D03*
X115850000Y-68417500D03*
X120850000Y-68417500D03*
%TD*%
D19*
%TO.C,D9*%
X82980000Y-153170000D03*
X82980000Y-151420000D03*
%TD*%
D20*
%TO.C,C2*%
X89220000Y-118040000D03*
X85620000Y-118040000D03*
%TD*%
D10*
%TO.C,D8*%
X121132500Y-137330000D03*
X126132500Y-137330000D03*
%TD*%
D21*
%TO.C,U2*%
X92230000Y-123515000D03*
X90480000Y-123515000D03*
X92230000Y-124825000D03*
X90480000Y-124825000D03*
D22*
X93260000Y-121690000D03*
X91990000Y-121690000D03*
X90720000Y-121690000D03*
X89450000Y-121690000D03*
X89450000Y-126650000D03*
X90720000Y-126650000D03*
X91990000Y-126650000D03*
X93260000Y-126650000D03*
%TD*%
D23*
%TO.C,R2*%
X86280000Y-126815000D03*
X86280000Y-124990000D03*
%TD*%
D24*
%TO.C,C9*%
X96950000Y-110040000D03*
X88550000Y-110040000D03*
%TD*%
D25*
%TO.C,C1*%
X94990000Y-118747500D03*
X94990000Y-120472500D03*
%TD*%
M02*
