%TF.GenerationSoftware,KiCad,Pcbnew,8.0.0*%
%TF.CreationDate,2025-05-02T16:13:48+09:00*%
%TF.ProjectId,Capstone_Power_Distribution_Board_V1.5,43617073-746f-46e6-955f-506f7765725f,rev?*%
%TF.SameCoordinates,Original*%
%TF.FileFunction,Paste,Bot*%
%TF.FilePolarity,Positive*%
%FSLAX46Y46*%
G04 Gerber Fmt 4.6, Leading zero omitted, Abs format (unit mm)*
G04 Created by KiCad (PCBNEW 8.0.0) date 2025-05-02 16:13:48*
%MOMM*%
%LPD*%
G01*
G04 APERTURE LIST*
G04 Aperture macros list*
%AMRoundRect*
0 Rectangle with rounded corners*
0 $1 Rounding radius*
0 $2 $3 $4 $5 $6 $7 $8 $9 X,Y pos of 4 corners*
0 Add a 4 corners polygon primitive as box body*
4,1,4,$2,$3,$4,$5,$6,$7,$8,$9,$2,$3,0*
0 Add four circle primitives for the rounded corners*
1,1,$1+$1,$2,$3*
1,1,$1+$1,$4,$5*
1,1,$1+$1,$6,$7*
1,1,$1+$1,$8,$9*
0 Add four rect primitives between the rounded corners*
20,1,$1+$1,$2,$3,$4,$5,0*
20,1,$1+$1,$4,$5,$6,$7,0*
20,1,$1+$1,$6,$7,$8,$9,0*
20,1,$1+$1,$8,$9,$2,$3,0*%
G04 Aperture macros list end*
%ADD10RoundRect,0.250000X-0.337500X-0.475000X0.337500X-0.475000X0.337500X0.475000X-0.337500X0.475000X0*%
%ADD11RoundRect,0.150000X-0.825000X-0.150000X0.825000X-0.150000X0.825000X0.150000X-0.825000X0.150000X0*%
%ADD12RoundRect,0.237500X0.250000X0.237500X-0.250000X0.237500X-0.250000X-0.237500X0.250000X-0.237500X0*%
%ADD13RoundRect,0.250000X-0.475000X0.337500X-0.475000X-0.337500X0.475000X-0.337500X0.475000X0.337500X0*%
%ADD14RoundRect,0.237500X-0.250000X-0.237500X0.250000X-0.237500X0.250000X0.237500X-0.250000X0.237500X0*%
%ADD15RoundRect,0.237500X0.237500X-0.250000X0.237500X0.250000X-0.237500X0.250000X-0.237500X-0.250000X0*%
%ADD16RoundRect,0.250000X0.337500X0.475000X-0.337500X0.475000X-0.337500X-0.475000X0.337500X-0.475000X0*%
%ADD17RoundRect,0.237500X0.300000X0.237500X-0.300000X0.237500X-0.300000X-0.237500X0.300000X-0.237500X0*%
%ADD18RoundRect,0.237500X0.237500X-0.300000X0.237500X0.300000X-0.237500X0.300000X-0.237500X-0.300000X0*%
%ADD19RoundRect,0.250000X0.475000X-0.337500X0.475000X0.337500X-0.475000X0.337500X-0.475000X-0.337500X0*%
%ADD20RoundRect,0.200000X-0.250000X0.200000X-0.250000X-0.200000X0.250000X-0.200000X0.250000X0.200000X0*%
G04 APERTURE END LIST*
D10*
%TO.C,C12*%
X141370000Y-126740000D03*
X143445000Y-126740000D03*
%TD*%
D11*
%TO.C,U3*%
X50895000Y-55240000D03*
X50895000Y-53970000D03*
X50895000Y-52700000D03*
X50895000Y-51430000D03*
X55845000Y-51430000D03*
X55845000Y-52700000D03*
X55845000Y-53970000D03*
X55845000Y-55240000D03*
%TD*%
D12*
%TO.C,R5*%
X90022500Y-82990000D03*
X88197500Y-82990000D03*
%TD*%
%TO.C,R9*%
X143232500Y-124490000D03*
X141407500Y-124490000D03*
%TD*%
D13*
%TO.C,RV2*%
X151310000Y-91462500D03*
X151310000Y-93537500D03*
%TD*%
D14*
%TO.C,R16*%
X153397500Y-93552500D03*
X155222500Y-93552500D03*
%TD*%
D15*
%TO.C,R15*%
X46830000Y-55752500D03*
X46830000Y-53927500D03*
%TD*%
D12*
%TO.C,R7*%
X90182500Y-94010000D03*
X88357500Y-94010000D03*
%TD*%
D16*
%TO.C,C14*%
X155427500Y-91450000D03*
X153352500Y-91450000D03*
%TD*%
D15*
%TO.C,R17*%
X46830000Y-51632500D03*
X46830000Y-49807500D03*
%TD*%
D17*
%TO.C,C8*%
X56062500Y-49250000D03*
X54337500Y-49250000D03*
%TD*%
D18*
%TO.C,C7*%
X48570000Y-51582500D03*
X48570000Y-49857500D03*
%TD*%
D12*
%TO.C,R10*%
X90022500Y-105240000D03*
X88197500Y-105240000D03*
%TD*%
D17*
%TO.C,C6*%
X56282500Y-56870000D03*
X54557500Y-56870000D03*
%TD*%
D14*
%TO.C,R19*%
X59997500Y-42590000D03*
X61822500Y-42590000D03*
%TD*%
D19*
%TO.C,RV1*%
X145410000Y-126747500D03*
X145410000Y-124672500D03*
%TD*%
D12*
%TO.C,R18*%
X52242500Y-56870000D03*
X50417500Y-56870000D03*
%TD*%
D20*
%TO.C,Q5*%
X59780000Y-45950000D03*
X59780000Y-44050000D03*
X61780000Y-45000000D03*
%TD*%
M02*
