%TF.GenerationSoftware,KiCad,Pcbnew,8.0.0*%
%TF.CreationDate,2025-05-02T16:13:48+09:00*%
%TF.ProjectId,Capstone_Power_Distribution_Board_V1.5,43617073-746f-46e6-955f-506f7765725f,rev?*%
%TF.SameCoordinates,Original*%
%TF.FileFunction,Profile,NP*%
%FSLAX46Y46*%
G04 Gerber Fmt 4.6, Leading zero omitted, Abs format (unit mm)*
G04 Created by KiCad (PCBNEW 8.0.0) date 2025-05-02 16:13:48*
%MOMM*%
%LPD*%
G01*
G04 APERTURE LIST*
%TA.AperFunction,Profile*%
%ADD10C,0.050000*%
%TD*%
G04 APERTURE END LIST*
D10*
X160974758Y-154632919D02*
X151974758Y-154632919D01*
X48975216Y-154632652D02*
G75*
G02*
X44975148Y-150632652I-16J4000052D01*
G01*
X155975216Y-38632652D02*
X155975216Y-43632652D01*
X164975216Y-137132652D02*
X164974758Y-150632919D01*
X164974758Y-150632919D02*
G75*
G02*
X160974758Y-154632958I-3999958J-81D01*
G01*
X160975216Y-43632652D02*
G75*
G02*
X164975148Y-47632652I-16J-3999948D01*
G01*
X44975216Y-150632652D02*
X44975216Y-38632652D01*
X112510000Y-87700000D02*
X113710000Y-87700000D01*
X113710000Y-91700000D01*
X112510000Y-91700000D01*
X112510000Y-87700000D01*
X44975216Y-38632652D02*
G75*
G02*
X48975216Y-34632656I3999994J2D01*
G01*
X160975216Y-43632652D02*
X155975216Y-43632652D01*
X63975216Y-154632652D02*
X48975216Y-154632652D01*
X151974758Y-154632919D02*
X89975216Y-154632652D01*
X112510000Y-98670000D02*
X113710000Y-98670000D01*
X113710000Y-102670000D01*
X112510000Y-102670000D01*
X112510000Y-98670000D01*
X89975216Y-34632652D02*
X151975216Y-34632652D01*
X151975216Y-34632652D02*
G75*
G02*
X155975248Y-38632652I-16J-4000048D01*
G01*
X164975216Y-47632652D02*
X164975216Y-137132652D01*
X89975216Y-34632652D02*
X63975216Y-34632652D01*
X89975216Y-154632652D02*
X63975216Y-154632652D01*
X112510000Y-76480000D02*
X113710000Y-76480000D01*
X113710000Y-80480000D01*
X112510000Y-80480000D01*
X112510000Y-76480000D01*
X63975216Y-34632652D02*
X48975216Y-34632652D01*
%TO.C,J23*%
X86880000Y-39417500D02*
X86880000Y-64917500D01*
X101880000Y-64917500D02*
X86880000Y-64917500D01*
X101880000Y-64917500D02*
X101880000Y-67117500D01*
X111880000Y-64917500D02*
X111880000Y-67117500D01*
X111880000Y-67117500D02*
X101880000Y-67117500D01*
X126880000Y-39417500D02*
X86880000Y-39417500D01*
X126880000Y-64917500D02*
X111880000Y-64917500D01*
X126880000Y-64917500D02*
X126880000Y-39417500D01*
%TD*%
M02*
